<?xml version="1.0" encoding="utf-8"?>
<svg x="0px" y="0px"
	 viewBox="0 0 45 45" style="enable-background:new 0 0 45 45;" xmlns="http://www.w3.org/2000/svg">
  <path d="M 81.688 76.626 L 60.857 76.626 L 60.857 75.453 C 60.857 74.81 60.411 74.281 59.865 74.281 L 57.881 74.281 C 57.335 74.281 56.89 74.81 56.89 75.453 L 56.89 76.626 L 51.93 76.626 C 51.385 76.626 50.938 77.153 50.938 77.797 L 50.938 80.142 C 50.938 80.787 51.385 81.314 51.93 81.314 L 56.89 81.314 L 56.89 82.486 C 56.89 83.131 57.335 83.659 57.881 83.659 L 59.865 83.659 C 60.411 83.659 60.857 83.131 60.857 82.486 L 60.857 81.314 L 81.688 81.314 C 82.233 81.314 82.679 80.787 82.679 80.142 L 82.679 77.797 C 82.679 77.153 82.233 76.626 81.688 76.626 Z M 81.688 64.905 L 76.729 64.905 L 76.729 63.732 C 76.729 63.088 76.282 62.561 75.736 62.561 L 73.752 62.561 C 73.207 62.561 72.76 63.088 72.76 63.732 L 72.76 64.905 L 51.93 64.905 C 51.385 64.905 50.938 65.432 50.938 66.077 L 50.938 68.421 C 50.938 69.066 51.385 69.594 51.93 69.594 L 72.76 69.594 L 72.76 70.765 C 72.76 71.409 73.207 71.938 73.752 71.938 L 75.736 71.938 C 76.282 71.938 76.729 71.409 76.729 70.765 L 76.729 69.594 L 81.688 69.594 C 82.233 69.594 82.679 69.066 82.679 68.421 L 82.679 66.077 C 82.679 65.432 82.233 64.905 81.688 64.905 Z M 81.688 53.184 L 68.793 53.184 L 68.793 52.013 C 68.793 51.367 68.347 50.84 67.801 50.84 L 65.818 50.84 C 65.272 50.84 64.825 51.367 64.825 52.013 L 64.825 53.184 L 51.93 53.184 C 51.385 53.184 50.938 53.712 50.938 54.356 L 50.938 56.7 C 50.938 57.345 51.385 57.873 51.93 57.873 L 64.825 57.873 L 64.825 59.044 C 64.825 59.689 65.272 60.216 65.818 60.216 L 67.801 60.216 C 68.347 60.216 68.793 59.689 68.793 59.044 L 68.793 57.873 L 81.688 57.873 C 82.233 57.873 82.679 57.345 82.679 56.7 L 82.679 54.356 C 82.679 53.712 82.233 53.184 81.688 53.184 Z" style="fill: rgb(227, 41, 41);"/>
</svg>