<?xml version="1.0" encoding="utf-8"?>
<!-- Generator: Adobe Illustrator 26.3.1, SVG Export Plug-In . SVG Version: 6.00 Build 0)  -->
<svg version="1.1" xmlns="http://www.w3.org/2000/svg" xmlns:xlink="http://www.w3.org/1999/xlink" x="0px" y="0px"
	 viewBox="0 0 196.669 20.728" style="enable-background:new 0 0 196.669 20.728;" xml:space="preserve">
<style type="text/css">
	.st0{fill:#ACA199;}
</style>
<g id="Guides">
</g>
<g id="ICONS">
</g>
<g id="Btm_Logos">
	<g>
		<g>
			<path class="st0" d="M8.046,7.451h7.366c0.028,0.183,0.056,0.377,0.085,0.581c0.028,0.204,0.042,0.419,0.042,0.644
				c0,0.901-0.141,1.794-0.422,2.681c-0.282,0.886-0.76,1.675-1.435,2.364c-0.689,0.718-1.498,1.273-2.427,1.667
				c-0.929,0.394-1.991,0.591-3.187,0.591c-1.083,0-2.107-0.197-3.071-0.591c-0.964-0.394-1.805-0.943-2.522-1.647
				c-0.718-0.703-1.284-1.537-1.699-2.501C0.36,10.276,0.152,9.224,0.152,8.084c0-1.139,0.207-2.191,0.623-3.155
				C1.19,3.965,1.757,3.132,2.474,2.428s1.558-1.253,2.522-1.647C5.96,0.388,6.984,0.191,8.067,0.191
				c1.154,0,2.22,0.204,3.198,0.612s1.797,0.978,2.459,1.709L12.056,4.18c-0.493-0.549-1.073-0.971-1.741-1.266
				C9.647,2.618,8.891,2.47,8.046,2.47c-0.718,0-1.407,0.134-2.068,0.401C5.316,3.138,4.733,3.515,4.226,4
				C3.72,4.486,3.318,5.074,3.023,5.763C2.728,6.452,2.58,7.226,2.58,8.084c0,0.858,0.148,1.632,0.443,2.322
				s0.697,1.277,1.203,1.762c0.507,0.485,1.09,0.862,1.752,1.129c0.661,0.268,1.358,0.401,2.089,0.401
				c0.971,0,1.755-0.148,2.354-0.443c0.598-0.295,1.101-0.64,1.509-1.034c0.295-0.281,0.555-0.651,0.781-1.108
				c0.225-0.457,0.373-0.96,0.443-1.509H8.046V7.451z"/>
			<path class="st0" d="M23.328,4.961c0.788,0,1.513,0.137,2.174,0.412c0.661,0.274,1.231,0.658,1.71,1.15
				c0.478,0.493,0.851,1.076,1.119,1.752c0.267,0.676,0.401,1.407,0.401,2.195c0,0.788-0.134,1.52-0.401,2.195
				c-0.267,0.675-0.64,1.259-1.119,1.752c-0.479,0.493-1.048,0.876-1.71,1.15c-0.661,0.274-1.386,0.412-2.174,0.412
				c-0.788,0-1.513-0.137-2.174-0.412c-0.662-0.274-1.232-0.658-1.71-1.15c-0.479-0.492-0.852-1.076-1.119-1.752
				c-0.268-0.675-0.401-1.407-0.401-2.195c0-0.788,0.134-1.519,0.401-2.195c0.267-0.675,0.64-1.259,1.119-1.752
				c0.478-0.492,1.048-0.876,1.71-1.15C21.815,5.098,22.54,4.961,23.328,4.961z M23.328,13.804c0.394,0,0.774-0.077,1.14-0.232
				c0.366-0.155,0.693-0.373,0.981-0.654c0.288-0.281,0.517-0.629,0.686-1.045c0.169-0.415,0.254-0.883,0.254-1.404
				c0-0.52-0.085-0.988-0.254-1.404c-0.169-0.415-0.397-0.763-0.686-1.045c-0.289-0.281-0.616-0.499-0.981-0.654
				c-0.366-0.155-0.746-0.232-1.14-0.232c-0.394,0-0.774,0.077-1.14,0.232c-0.366,0.155-0.693,0.373-0.981,0.654
				c-0.289,0.282-0.517,0.63-0.686,1.045c-0.169,0.415-0.253,0.883-0.253,1.404c0,0.521,0.085,0.989,0.253,1.404
				c0.169,0.415,0.397,0.763,0.686,1.045c0.288,0.282,0.616,0.5,0.981,0.654C22.554,13.727,22.934,13.804,23.328,13.804z"/>
			<path class="st0" d="M36.372,4.961c0.788,0,1.513,0.137,2.174,0.412c0.661,0.274,1.231,0.658,1.71,1.15
				c0.478,0.493,0.851,1.076,1.119,1.752c0.267,0.676,0.401,1.407,0.401,2.195c0,0.788-0.134,1.52-0.401,2.195
				s-0.64,1.259-1.119,1.752c-0.479,0.493-1.048,0.876-1.71,1.15s-1.386,0.412-2.174,0.412c-0.788,0-1.513-0.137-2.174-0.412
				c-0.662-0.274-1.232-0.658-1.71-1.15c-0.479-0.492-0.852-1.076-1.119-1.752c-0.268-0.675-0.401-1.407-0.401-2.195
				c0-0.788,0.134-1.519,0.401-2.195c0.267-0.675,0.64-1.259,1.119-1.752c0.478-0.492,1.048-0.876,1.71-1.15
				C34.859,5.098,35.584,4.961,36.372,4.961z M36.372,13.804c0.394,0,0.774-0.077,1.14-0.232c0.366-0.155,0.693-0.373,0.981-0.654
				c0.288-0.281,0.517-0.629,0.686-1.045c0.169-0.415,0.254-0.883,0.254-1.404c0-0.52-0.085-0.988-0.254-1.404
				c-0.169-0.415-0.397-0.763-0.686-1.045c-0.289-0.281-0.616-0.499-0.981-0.654c-0.366-0.155-0.746-0.232-1.14-0.232
				c-0.394,0-0.774,0.077-1.14,0.232c-0.366,0.155-0.693,0.373-0.981,0.654c-0.289,0.282-0.517,0.63-0.686,1.045
				c-0.169,0.415-0.253,0.883-0.253,1.404c0,0.521,0.085,0.989,0.253,1.404c0.169,0.415,0.397,0.763,0.686,1.045
				c0.288,0.282,0.616,0.5,0.981,0.654C35.598,13.727,35.978,13.804,36.372,13.804z"/>
			<path class="st0" d="M48.233,20.537c-0.718,0-1.354-0.095-1.91-0.285c-0.556-0.19-1.038-0.433-1.446-0.728
				c-0.408-0.295-0.742-0.626-1.002-0.992c-0.26-0.366-0.454-0.718-0.581-1.055l2.237-0.908c0.197,0.549,0.535,0.996,1.013,1.34
				c0.478,0.345,1.041,0.517,1.688,0.517c0.971,0,1.727-0.283,2.269-0.85c0.541-0.566,0.813-1.36,0.813-2.379v-0.844h-0.127
				c-0.324,0.464-0.771,0.852-1.34,1.161c-0.57,0.31-1.235,0.464-1.995,0.464c-0.633,0-1.245-0.135-1.836-0.405
				c-0.591-0.27-1.115-0.646-1.572-1.13c-0.458-0.483-0.82-1.065-1.087-1.747c-0.268-0.682-0.401-1.428-0.401-2.238
				c0-0.81,0.134-1.552,0.401-2.227c0.267-0.675,0.629-1.254,1.087-1.737c0.457-0.483,0.981-0.86,1.572-1.13
				c0.591-0.27,1.203-0.405,1.836-0.405c0.76,0,1.425,0.155,1.995,0.464c0.57,0.31,1.017,0.697,1.34,1.161h0.127V5.298h2.258v9.751
				c0,0.886-0.137,1.671-0.412,2.353c-0.274,0.682-0.648,1.256-1.119,1.72c-0.472,0.464-1.034,0.816-1.688,1.055
				C49.7,20.418,48.993,20.537,48.233,20.537z M48.318,13.804c0.38,0,0.753-0.071,1.119-0.214c0.366-0.143,0.686-0.358,0.961-0.643
				c0.274-0.286,0.496-0.636,0.665-1.051c0.169-0.415,0.254-0.893,0.254-1.437c0-0.529-0.085-1.004-0.254-1.426
				c-0.169-0.421-0.39-0.772-0.665-1.051c-0.274-0.279-0.595-0.493-0.961-0.643c-0.366-0.15-0.739-0.225-1.119-0.225
				c-0.394,0-0.77,0.075-1.129,0.225c-0.359,0.15-0.679,0.368-0.96,0.654c-0.282,0.286-0.507,0.636-0.676,1.051
				c-0.169,0.415-0.253,0.886-0.253,1.415c0,0.529,0.085,1.001,0.253,1.416c0.169,0.415,0.394,0.765,0.676,1.051
				c0.281,0.286,0.602,0.504,0.96,0.654C47.547,13.729,47.923,13.804,48.318,13.804z"/>
			<path class="st0" d="M55.283,15.641V0.528h2.343v15.112H55.283z"/>
			<path class="st0" d="M70.174,11.548c-0.198,0.891-0.609,1.705-1.233,2.439c-0.624,0.735-1.497,1.264-2.619,1.585
				c-0.744,0.213-1.468,0.278-2.173,0.195c-0.705-0.083-1.355-0.295-1.95-0.637c-0.596-0.341-1.114-0.797-1.556-1.366
				c-0.441-0.569-0.772-1.239-0.993-2.01c-0.206-0.717-0.279-1.431-0.22-2.144c0.059-0.712,0.24-1.371,0.542-1.978
				c0.302-0.606,0.723-1.141,1.264-1.603c0.54-0.462,1.19-0.802,1.947-1.019c0.771-0.221,1.494-0.289,2.17-0.205
				c0.675,0.085,1.289,0.296,1.84,0.636c0.551,0.34,1.032,0.802,1.441,1.388c0.409,0.585,0.725,1.264,0.946,2.034
				c0.02,0.068,0.037,0.128,0.052,0.182c0.006,0.072,0.017,0.135,0.032,0.189c0.002,0.058,0.011,0.114,0.026,0.168l-7.649,2.193
				c0.176,0.462,0.409,0.841,0.7,1.139c0.29,0.297,0.607,0.521,0.95,0.672c0.343,0.151,0.699,0.231,1.068,0.243
				c0.369,0.011,0.716-0.03,1.041-0.123c0.649-0.186,1.139-0.495,1.469-0.926c0.33-0.431,0.564-0.916,0.703-1.453L70.174,11.548z
				 M66.984,8.312c-0.085-0.195-0.214-0.403-0.388-0.625c-0.173-0.221-0.395-0.406-0.664-0.556c-0.27-0.149-0.592-0.251-0.966-0.305
				c-0.374-0.054-0.798-0.013-1.271,0.123c-0.649,0.186-1.152,0.539-1.508,1.058c-0.356,0.519-0.522,1.127-0.498,1.822L66.984,8.312
				z"/>
		</g>
		<path class="st0" d="M8.046,7.451h7.366c0.028,0.183,0.056,0.377,0.085,0.581c0.028,0.204,0.042,0.419,0.042,0.644
			c0,0.901-0.141,1.794-0.422,2.681c-0.282,0.886-0.76,1.675-1.435,2.364c-0.689,0.718-1.498,1.273-2.427,1.667
			c-0.929,0.394-1.991,0.591-3.187,0.591c-1.083,0-2.107-0.197-3.071-0.591c-0.964-0.394-1.805-0.943-2.522-1.647
			c-0.718-0.703-1.284-1.537-1.699-2.501C0.36,10.276,0.152,9.224,0.152,8.084c0-1.139,0.207-2.191,0.623-3.155
			C1.19,3.965,1.757,3.132,2.474,2.428s1.558-1.253,2.522-1.647C5.96,0.388,6.984,0.191,8.067,0.191c1.154,0,2.22,0.204,3.198,0.612
			s1.797,0.978,2.459,1.709L12.056,4.18c-0.493-0.549-1.073-0.971-1.741-1.266C9.647,2.618,8.891,2.47,8.046,2.47
			c-0.718,0-1.407,0.134-2.068,0.401C5.316,3.138,4.733,3.515,4.226,4C3.72,4.486,3.318,5.074,3.023,5.763
			C2.728,6.452,2.58,7.226,2.58,8.084c0,0.858,0.148,1.632,0.443,2.322s0.697,1.277,1.203,1.762c0.507,0.485,1.09,0.862,1.752,1.129
			c0.661,0.268,1.358,0.401,2.089,0.401c0.971,0,1.755-0.148,2.354-0.443c0.598-0.295,1.101-0.64,1.509-1.034
			c0.295-0.281,0.555-0.651,0.781-1.108c0.225-0.457,0.373-0.96,0.443-1.509H8.046V7.451z"/>
		<path class="st0" d="M23.328,4.961c0.788,0,1.513,0.137,2.174,0.412c0.661,0.274,1.231,0.658,1.71,1.15
			c0.478,0.493,0.851,1.076,1.119,1.752c0.267,0.676,0.401,1.407,0.401,2.195c0,0.788-0.134,1.52-0.401,2.195
			c-0.267,0.675-0.64,1.259-1.119,1.752c-0.479,0.493-1.048,0.876-1.71,1.15c-0.661,0.274-1.386,0.412-2.174,0.412
			c-0.788,0-1.513-0.137-2.174-0.412c-0.662-0.274-1.232-0.658-1.71-1.15c-0.479-0.492-0.852-1.076-1.119-1.752
			c-0.268-0.675-0.401-1.407-0.401-2.195c0-0.788,0.134-1.519,0.401-2.195c0.267-0.675,0.64-1.259,1.119-1.752
			c0.478-0.492,1.048-0.876,1.71-1.15C21.815,5.098,22.54,4.961,23.328,4.961z M23.328,13.804c0.394,0,0.774-0.077,1.14-0.232
			c0.366-0.155,0.693-0.373,0.981-0.654c0.288-0.281,0.517-0.629,0.686-1.045c0.169-0.415,0.254-0.883,0.254-1.404
			c0-0.52-0.085-0.988-0.254-1.404c-0.169-0.415-0.397-0.763-0.686-1.045c-0.289-0.281-0.616-0.499-0.981-0.654
			c-0.366-0.155-0.746-0.232-1.14-0.232c-0.394,0-0.774,0.077-1.14,0.232c-0.366,0.155-0.693,0.373-0.981,0.654
			c-0.289,0.282-0.517,0.63-0.686,1.045c-0.169,0.415-0.253,0.883-0.253,1.404c0,0.521,0.085,0.989,0.253,1.404
			c0.169,0.415,0.397,0.763,0.686,1.045c0.288,0.282,0.616,0.5,0.981,0.654C22.554,13.727,22.934,13.804,23.328,13.804z"/>
		<path class="st0" d="M36.372,4.961c0.788,0,1.513,0.137,2.174,0.412c0.661,0.274,1.231,0.658,1.71,1.15
			c0.478,0.493,0.851,1.076,1.119,1.752c0.267,0.676,0.401,1.407,0.401,2.195c0,0.788-0.134,1.52-0.401,2.195
			s-0.64,1.259-1.119,1.752c-0.479,0.493-1.048,0.876-1.71,1.15s-1.386,0.412-2.174,0.412c-0.788,0-1.513-0.137-2.174-0.412
			c-0.662-0.274-1.232-0.658-1.71-1.15c-0.479-0.492-0.852-1.076-1.119-1.752c-0.268-0.675-0.401-1.407-0.401-2.195
			c0-0.788,0.134-1.519,0.401-2.195c0.267-0.675,0.64-1.259,1.119-1.752c0.478-0.492,1.048-0.876,1.71-1.15
			C34.859,5.098,35.584,4.961,36.372,4.961z M36.372,13.804c0.394,0,0.774-0.077,1.14-0.232c0.366-0.155,0.693-0.373,0.981-0.654
			c0.288-0.281,0.517-0.629,0.686-1.045c0.169-0.415,0.254-0.883,0.254-1.404c0-0.52-0.085-0.988-0.254-1.404
			c-0.169-0.415-0.397-0.763-0.686-1.045c-0.289-0.281-0.616-0.499-0.981-0.654c-0.366-0.155-0.746-0.232-1.14-0.232
			c-0.394,0-0.774,0.077-1.14,0.232c-0.366,0.155-0.693,0.373-0.981,0.654c-0.289,0.282-0.517,0.63-0.686,1.045
			c-0.169,0.415-0.253,0.883-0.253,1.404c0,0.521,0.085,0.989,0.253,1.404c0.169,0.415,0.397,0.763,0.686,1.045
			c0.288,0.282,0.616,0.5,0.981,0.654C35.598,13.727,35.978,13.804,36.372,13.804z"/>
		<path class="st0" d="M48.233,20.537c-0.718,0-1.354-0.095-1.91-0.285c-0.556-0.19-1.038-0.433-1.446-0.728
			c-0.408-0.295-0.742-0.626-1.002-0.992c-0.26-0.366-0.454-0.718-0.581-1.055l2.237-0.908c0.197,0.549,0.535,0.996,1.013,1.34
			c0.478,0.345,1.041,0.517,1.688,0.517c0.971,0,1.727-0.283,2.269-0.85c0.541-0.566,0.813-1.36,0.813-2.379v-0.844h-0.127
			c-0.324,0.464-0.771,0.852-1.34,1.161c-0.57,0.31-1.235,0.464-1.995,0.464c-0.633,0-1.245-0.135-1.836-0.405
			c-0.591-0.27-1.115-0.646-1.572-1.13c-0.458-0.483-0.82-1.065-1.087-1.747c-0.268-0.682-0.401-1.428-0.401-2.238
			c0-0.81,0.134-1.552,0.401-2.227c0.267-0.675,0.629-1.254,1.087-1.737c0.457-0.483,0.981-0.86,1.572-1.13
			c0.591-0.27,1.203-0.405,1.836-0.405c0.76,0,1.425,0.155,1.995,0.464c0.57,0.31,1.017,0.697,1.34,1.161h0.127V5.298h2.258v9.751
			c0,0.886-0.137,1.671-0.412,2.353c-0.274,0.682-0.648,1.256-1.119,1.72c-0.472,0.464-1.034,0.816-1.688,1.055
			C49.7,20.418,48.993,20.537,48.233,20.537z M48.318,13.804c0.38,0,0.753-0.071,1.119-0.214c0.366-0.143,0.686-0.358,0.961-0.643
			c0.274-0.286,0.496-0.636,0.665-1.051c0.169-0.415,0.254-0.893,0.254-1.437c0-0.529-0.085-1.004-0.254-1.426
			c-0.169-0.421-0.39-0.772-0.665-1.051c-0.274-0.279-0.595-0.493-0.961-0.643c-0.366-0.15-0.739-0.225-1.119-0.225
			c-0.394,0-0.77,0.075-1.129,0.225c-0.359,0.15-0.679,0.368-0.96,0.654c-0.282,0.286-0.507,0.636-0.676,1.051
			c-0.169,0.415-0.253,0.886-0.253,1.415c0,0.529,0.085,1.001,0.253,1.416c0.169,0.415,0.394,0.765,0.676,1.051
			c0.281,0.286,0.602,0.504,0.96,0.654C47.547,13.729,47.923,13.804,48.318,13.804z"/>
		<path class="st0" d="M55.283,15.641V0.528h2.343v15.112H55.283z"/>
		<path class="st0" d="M70.174,11.548c-0.198,0.891-0.609,1.705-1.233,2.439c-0.624,0.735-1.497,1.264-2.619,1.585
			c-0.744,0.213-1.468,0.278-2.173,0.195c-0.705-0.083-1.355-0.295-1.95-0.637c-0.596-0.341-1.114-0.797-1.556-1.366
			c-0.441-0.569-0.772-1.239-0.993-2.01c-0.206-0.717-0.279-1.431-0.22-2.144c0.059-0.712,0.24-1.371,0.542-1.978
			c0.302-0.606,0.723-1.141,1.264-1.603c0.54-0.462,1.19-0.802,1.947-1.019c0.771-0.221,1.494-0.289,2.17-0.205
			c0.675,0.085,1.289,0.296,1.84,0.636c0.551,0.34,1.032,0.802,1.441,1.388c0.409,0.585,0.725,1.264,0.946,2.034
			c0.02,0.068,0.037,0.128,0.052,0.182c0.006,0.072,0.017,0.135,0.032,0.189c0.002,0.058,0.011,0.114,0.026,0.168l-7.649,2.193
			c0.176,0.462,0.409,0.841,0.7,1.139c0.29,0.297,0.607,0.521,0.95,0.672c0.343,0.151,0.699,0.231,1.068,0.243
			c0.369,0.011,0.716-0.03,1.041-0.123c0.649-0.186,1.139-0.495,1.469-0.926c0.33-0.431,0.564-0.916,0.703-1.453L70.174,11.548z
			 M66.984,8.312c-0.085-0.195-0.214-0.403-0.388-0.625c-0.173-0.221-0.395-0.406-0.664-0.556c-0.27-0.149-0.592-0.251-0.966-0.305
			c-0.374-0.054-0.798-0.013-1.271,0.123c-0.649,0.186-1.152,0.539-1.508,1.058c-0.356,0.519-0.522,1.127-0.498,1.822L66.984,8.312z
			"/>
	</g>
	<g>
		<path class="st0" d="M86.593,1.032v1.796h-6.651v4.631h5.999v1.755h-5.999v4.631h6.651v1.795h-8.528V1.032H86.593z"/>
		<path class="st0" d="M93.306,5.317c1.388,0,2.482,0.371,3.285,1.112c0.802,0.741,1.204,1.758,1.204,3.05v6.162h-1.795v-1.388
			h-0.082c-0.775,1.143-1.809,1.714-3.101,1.714c-1.102,0-2.023-0.326-2.764-0.979c-0.742-0.653-1.112-1.469-1.112-2.448
			c0-1.033,0.391-1.856,1.173-2.469c0.782-0.612,1.826-0.918,3.132-0.918c1.115,0,2.033,0.204,2.754,0.612V9.336
			c0-0.653-0.259-1.207-0.775-1.663c-0.517-0.456-1.122-0.683-1.816-0.683c-1.048,0-1.877,0.442-2.489,1.326l-1.653-1.041
			C90.177,5.969,91.523,5.317,93.306,5.317z M90.877,12.58c0,0.49,0.207,0.898,0.622,1.224c0.415,0.326,0.901,0.49,1.459,0.49
			c0.789,0,1.493-0.292,2.112-0.877c0.619-0.585,0.929-1.272,0.929-2.06c-0.585-0.462-1.401-0.694-2.448-0.694
			c-0.762,0-1.398,0.184-1.908,0.551C91.133,11.58,90.877,12.036,90.877,12.58z"/>
		<path class="st0" d="M100.936,5.643h1.795v1.632h0.082c0.558-1.278,1.707-1.918,3.448-1.918l0.388,0.041v1.959l-0.836-0.082
			c-0.871,0-1.588,0.269-2.153,0.806c-0.565,0.538-0.847,1.221-0.847,2.051v5.509h-1.877V5.643z M112.647,15.804
			c-0.816,0-1.493-0.251-2.03-0.755c-0.537-0.503-0.813-1.204-0.826-2.102v-5.59h-1.755V5.643h1.755V2.583h1.877v3.061h2.448v1.714
			h-2.448v4.978c0,0.667,0.129,1.119,0.388,1.357c0.258,0.238,0.551,0.357,0.877,0.357c0.15,0,0.296-0.017,0.439-0.051
			c0.143-0.034,0.276-0.078,0.398-0.133l0.592,1.673C113.871,15.715,113.3,15.804,112.647,15.804z"/>
		<path class="st0" d="M117.034,1.032h1.877v4.611l-0.082,1.388h0.082c0.286-0.49,0.724-0.898,1.316-1.224
			c0.592-0.326,1.207-0.49,1.846-0.49c1.224,0,2.166,0.35,2.826,1.051c0.66,0.701,0.989,1.697,0.989,2.989v6.284h-1.877V9.724
			c0-1.795-0.796-2.693-2.387-2.693c-0.762,0-1.405,0.316-1.928,0.948c-0.524,0.632-0.786,1.371-0.786,2.214v5.448h-1.877V1.032z"/>
		<path class="st0" d="M141.435,1.032v1.796h-6.651v4.631h5.999v1.755h-5.999v4.631h6.651v1.795h-8.528V1.032H141.435z"/>
		<path class="st0" d="M144.455,5.643h1.795v1.388h0.082c0.286-0.49,0.724-0.898,1.316-1.224c0.592-0.326,1.207-0.49,1.846-0.49
			c1.224,0,2.166,0.35,2.826,1.051c0.66,0.701,0.989,1.697,0.989,2.989v6.284h-1.877V9.479c-0.041-1.632-0.864-2.448-2.469-2.448
			c-0.748,0-1.374,0.303-1.877,0.908c-0.504,0.605-0.755,1.329-0.755,2.173v5.529h-1.877V5.643z"/>
		<path class="st0" d="M160.859,20.374c-0.558,0-1.081-0.071-1.571-0.214c-0.49-0.143-0.935-0.344-1.336-0.602
			c-0.402-0.258-0.745-0.564-1.031-0.918c-0.285-0.354-0.503-0.748-0.653-1.183l1.775-0.734c0.204,0.585,0.558,1.054,1.061,1.408
			c0.503,0.353,1.088,0.53,1.755,0.53c1.02,0,1.816-0.306,2.387-0.918c0.571-0.612,0.857-1.456,0.857-2.53v-0.959h-0.081
			c-0.354,0.531-0.833,0.949-1.438,1.255c-0.606,0.306-1.262,0.459-1.969,0.459c-1.306,0-2.428-0.51-3.366-1.53
			c-0.925-1.047-1.388-2.312-1.388-3.795c0-1.482,0.462-2.741,1.388-3.775c0.939-1.033,2.06-1.55,3.366-1.55
			c0.707,0,1.363,0.153,1.969,0.459c0.605,0.306,1.085,0.724,1.438,1.255h0.081V5.643h1.796v9.569c0,1.605-0.456,2.863-1.367,3.774
			C163.606,19.911,162.382,20.374,160.859,20.374z M160.92,14.253c0.925,0,1.68-0.333,2.265-1c0.612-0.666,0.918-1.537,0.918-2.612
			c0-1.047-0.306-1.911-0.918-2.591c-0.599-0.68-1.354-1.02-2.265-1.02c-0.898,0-1.653,0.34-2.265,1.02
			c-0.612,0.681-0.918,1.544-0.918,2.591c0,1.061,0.306,1.925,0.918,2.591C159.267,13.913,160.022,14.253,160.92,14.253z"/>
		<path class="st0" d="M171.244,5.643v9.997h-1.877V5.643H171.244z"/>
		<path class="st0" d="M174.712,5.643h1.795v1.388h0.082c0.286-0.49,0.724-0.898,1.316-1.224c0.592-0.326,1.207-0.49,1.846-0.49
			c1.224,0,2.166,0.35,2.826,1.051c0.66,0.701,0.989,1.697,0.989,2.989v6.284h-1.877V9.479c-0.041-1.632-0.864-2.448-2.469-2.448
			c-0.748,0-1.374,0.303-1.877,0.908c-0.504,0.605-0.755,1.329-0.755,2.173v5.529h-1.877V5.643z"/>
		<path class="st0" d="M191.279,15.967c-1.469,0-2.68-0.503-3.632-1.51c-0.952-1.006-1.428-2.278-1.428-3.815
			c0-1.523,0.462-2.792,1.388-3.805c0.925-1.013,2.108-1.52,3.55-1.52c1.482,0,2.662,0.479,3.54,1.438
			c0.877,0.959,1.316,2.302,1.316,4.03l-0.02,0.204h-7.855c0.027,0.979,0.353,1.768,0.979,2.367
			c0.625,0.599,1.373,0.898,2.244,0.898c1.197,0,2.135-0.598,2.816-1.795l1.673,0.816c-0.449,0.843-1.071,1.503-1.867,1.979
			C193.186,15.729,192.285,15.967,191.279,15.967z M188.28,9.438h5.733c-0.055-0.694-0.337-1.268-0.847-1.724
			c-0.51-0.456-1.193-0.683-2.051-0.683c-0.707,0-1.316,0.217-1.826,0.653C188.78,8.119,188.443,8.704,188.28,9.438z"/>
		<path class="st0" d="M86.593,1.032v1.796h-6.651v4.631h5.999v1.755h-5.999v4.631h6.651v1.795h-8.528V1.032H86.593z"/>
		<path class="st0" d="M93.306,5.317c1.388,0,2.482,0.371,3.285,1.112c0.802,0.741,1.204,1.758,1.204,3.05v6.162h-1.795v-1.388
			h-0.082c-0.775,1.143-1.809,1.714-3.101,1.714c-1.102,0-2.023-0.326-2.764-0.979c-0.742-0.653-1.112-1.469-1.112-2.448
			c0-1.033,0.391-1.856,1.173-2.469c0.782-0.612,1.826-0.918,3.132-0.918c1.115,0,2.033,0.204,2.754,0.612V9.336
			c0-0.653-0.259-1.207-0.775-1.663c-0.517-0.456-1.122-0.683-1.816-0.683c-1.048,0-1.877,0.442-2.489,1.326l-1.653-1.041
			C90.177,5.969,91.523,5.317,93.306,5.317z M90.877,12.58c0,0.49,0.207,0.898,0.622,1.224c0.415,0.326,0.901,0.49,1.459,0.49
			c0.789,0,1.493-0.292,2.112-0.877c0.619-0.585,0.929-1.272,0.929-2.06c-0.585-0.462-1.401-0.694-2.448-0.694
			c-0.762,0-1.398,0.184-1.908,0.551C91.133,11.58,90.877,12.036,90.877,12.58z"/>
		<path class="st0" d="M100.936,5.643h1.795v1.632h0.082c0.558-1.278,1.707-1.918,3.448-1.918l0.388,0.041v1.959l-0.836-0.082
			c-0.871,0-1.588,0.269-2.153,0.806c-0.565,0.538-0.847,1.221-0.847,2.051v5.509h-1.877V5.643z M112.647,15.804
			c-0.816,0-1.493-0.251-2.03-0.755c-0.537-0.503-0.813-1.204-0.826-2.102v-5.59h-1.755V5.643h1.755V2.583h1.877v3.061h2.448v1.714
			h-2.448v4.978c0,0.667,0.129,1.119,0.388,1.357c0.258,0.238,0.551,0.357,0.877,0.357c0.15,0,0.296-0.017,0.439-0.051
			c0.143-0.034,0.276-0.078,0.398-0.133l0.592,1.673C113.871,15.715,113.3,15.804,112.647,15.804z"/>
		<path class="st0" d="M117.034,1.032h1.877v4.611l-0.082,1.388h0.082c0.286-0.49,0.724-0.898,1.316-1.224
			c0.592-0.326,1.207-0.49,1.846-0.49c1.224,0,2.166,0.35,2.826,1.051c0.66,0.701,0.989,1.697,0.989,2.989v6.284h-1.877V9.724
			c0-1.795-0.796-2.693-2.387-2.693c-0.762,0-1.405,0.316-1.928,0.948c-0.524,0.632-0.786,1.371-0.786,2.214v5.448h-1.877V1.032z"/>
		<path class="st0" d="M141.435,1.032v1.796h-6.651v4.631h5.999v1.755h-5.999v4.631h6.651v1.795h-8.528V1.032H141.435z"/>
		<path class="st0" d="M144.455,5.643h1.795v1.388h0.082c0.286-0.49,0.724-0.898,1.316-1.224c0.592-0.326,1.207-0.49,1.846-0.49
			c1.224,0,2.166,0.35,2.826,1.051c0.66,0.701,0.989,1.697,0.989,2.989v6.284h-1.877V9.479c-0.041-1.632-0.864-2.448-2.469-2.448
			c-0.748,0-1.374,0.303-1.877,0.908c-0.504,0.605-0.755,1.329-0.755,2.173v5.529h-1.877V5.643z"/>
		<path class="st0" d="M160.859,20.374c-0.558,0-1.081-0.071-1.571-0.214c-0.49-0.143-0.935-0.344-1.336-0.602
			c-0.402-0.258-0.745-0.564-1.031-0.918c-0.285-0.354-0.503-0.748-0.653-1.183l1.775-0.734c0.204,0.585,0.558,1.054,1.061,1.408
			c0.503,0.353,1.088,0.53,1.755,0.53c1.02,0,1.816-0.306,2.387-0.918c0.571-0.612,0.857-1.456,0.857-2.53v-0.959h-0.081
			c-0.354,0.531-0.833,0.949-1.438,1.255c-0.606,0.306-1.262,0.459-1.969,0.459c-1.306,0-2.428-0.51-3.366-1.53
			c-0.925-1.047-1.388-2.312-1.388-3.795c0-1.482,0.462-2.741,1.388-3.775c0.939-1.033,2.06-1.55,3.366-1.55
			c0.707,0,1.363,0.153,1.969,0.459c0.605,0.306,1.085,0.724,1.438,1.255h0.081V5.643h1.796v9.569c0,1.605-0.456,2.863-1.367,3.774
			C163.606,19.911,162.382,20.374,160.859,20.374z M160.92,14.253c0.925,0,1.68-0.333,2.265-1c0.612-0.666,0.918-1.537,0.918-2.612
			c0-1.047-0.306-1.911-0.918-2.591c-0.599-0.68-1.354-1.02-2.265-1.02c-0.898,0-1.653,0.34-2.265,1.02
			c-0.612,0.681-0.918,1.544-0.918,2.591c0,1.061,0.306,1.925,0.918,2.591C159.267,13.913,160.022,14.253,160.92,14.253z"/>
		<rect x="169.367" y="5.643" class="st0" width="1.877" height="9.997"/>
		<path class="st0" d="M174.712,5.643h1.795v1.388h0.082c0.286-0.49,0.724-0.898,1.316-1.224c0.592-0.326,1.207-0.49,1.846-0.49
			c1.224,0,2.166,0.35,2.826,1.051c0.66,0.701,0.989,1.697,0.989,2.989v6.284h-1.877V9.479c-0.041-1.632-0.864-2.448-2.469-2.448
			c-0.748,0-1.374,0.303-1.877,0.908c-0.504,0.605-0.755,1.329-0.755,2.173v5.529h-1.877V5.643z"/>
		<path class="st0" d="M191.279,15.967c-1.469,0-2.68-0.503-3.632-1.51c-0.952-1.006-1.428-2.278-1.428-3.815
			c0-1.523,0.462-2.792,1.388-3.805c0.925-1.013,2.108-1.52,3.55-1.52c1.482,0,2.662,0.479,3.54,1.438
			c0.877,0.959,1.316,2.302,1.316,4.03l-0.02,0.204h-7.855c0.027,0.979,0.353,1.768,0.979,2.367
			c0.625,0.599,1.373,0.898,2.244,0.898c1.197,0,2.135-0.598,2.816-1.795l1.673,0.816c-0.449,0.843-1.071,1.503-1.867,1.979
			C193.186,15.729,192.285,15.967,191.279,15.967z M188.28,9.438h5.733c-0.055-0.694-0.337-1.268-0.847-1.724
			c-0.51-0.456-1.193-0.683-2.051-0.683c-0.707,0-1.316,0.217-1.826,0.653C188.78,8.119,188.443,8.704,188.28,9.438z"/>
		<path class="st0" d="M171.629,2.201c0,0.367-0.129,0.68-0.388,0.938c-0.258,0.258-0.571,0.387-0.938,0.387
			s-0.68-0.129-0.938-0.387c-0.259-0.258-0.387-0.571-0.387-0.938s0.129-0.68,0.387-0.938c0.258-0.258,0.571-0.388,0.938-0.388
			s0.68,0.129,0.938,0.388C171.499,1.521,171.629,1.834,171.629,2.201z"/>
	</g>
</g>
</svg>
