<?xml version="1.0" encoding="utf-8"?>
<!-- Generator: Adobe Illustrator 26.3.1, SVG Export Plug-In . SVG Version: 6.00 Build 0)  -->
<svg version="1.1" xmlns="http://www.w3.org/2000/svg" xmlns:xlink="http://www.w3.org/1999/xlink" x="0px" y="0px"
	 viewBox="0 0 33 33.322" style="enable-background:new 0 0 33 33.322;" xml:space="preserve">
<style type="text/css">
	.st0{fill:#0B8AB8;}
	.st1{fill:#808080;}
	.st2{fill:#FC0E18;}
	.st3{fill:#85C61A;}
	.st4{clip-path:url(#SVGID_00000142167306630619062140000008147733114336386726_);fill:#100C70;}
	.st5{clip-path:url(#SVGID_00000142167306630619062140000008147733114336386726_);fill:#86031E;}
	.st6{clip-path:url(#SVGID_00000142167306630619062140000008147733114336386726_);}
	.st7{clip-path:url(#SVGID_00000142167306630619062140000008147733114336386726_);fill:#0C7D30;}
</style>
<g id="Guides">
</g>
<g id="ICONS">
</g>
<g id="Btm_Logos">
</g>
<g id="Logos_ALL_Full_Color">
	<g id="RCR_Color_1_">
		<rect y="16.741" class="st0" width="16.494" height="16.581"/>
		<rect x="16.494" y="16.741" class="st1" width="16.506" height="16.581"/>
		<rect class="st2" width="16.494" height="16.741"/>
		<rect x="16.494" class="st3" width="16.506" height="16.741"/>
		<g>
			<defs>
				<rect id="SVGID_1_" width="33" height="33.322"/>
			</defs>
			<clipPath id="SVGID_00000110437980767027764440000010208429685636396727_">
				<use xlink:href="#SVGID_1_"  style="overflow:visible;"/>
			</clipPath>
			<path style="clip-path:url(#SVGID_00000110437980767027764440000010208429685636396727_);fill:#100C70;" d="M2.382,18.588
				c0,0-0.293,0.008-0.407-0.286c-0.363,1.183,0.682,2.937,0.682,2.937s-0.244-0.021-0.447-0.141
				c-0.36,1.521,1.844,2.699,1.844,2.699c-0.108,0.199-0.316,0.181-0.51,0.149c-0.28,0.699,2.853,2.024,2.853,2.024
				c-0.12,0.127-0.229,0.214-0.584,0.337c0.384,0.832,4.063,1.098,4.35,0.976c0,0.103-0.289,0.259-0.424,0.298
				c0.384,0.488,2.891-0.07,3.551-0.165c0,0-0.125,0.325-0.314,0.458c0.303,0.381,3.056-1.557,3.132,0.671
				c0.023,0.693,0.16,1.276,0.385,1.767v-3.004c-0.128,0.024-0.284,0.03-0.481,0.014c0.113-1.278-0.14-1.477-1.056-2.013
				c-0.577-0.306-1.704-0.198-1.958-0.25c-0.907-0.124-4.181-1.112-4.181-1.112c-0.256-0.053-0.507-0.065-0.95-0.116
				c-1.585-0.206-2.609-0.417-2.521-0.907c1.75,0.374,1.628,0.389,2.654,0.453l-1.699-1.338c-0.229-0.18-1.902-2.163-1.905-2.868
				l0.089-0.113c0.395,0.349,1.207,2.057,2.699,3.231c0.826,0.651,1.714,1.128,2.513,1.389c0,0,2.397,0.78,3.556,0.771
				c0.437,0.013,1.746-0.14,2.868,0.892c0.049-0.11-0.122-1.547-0.502-1.77c-0.312-0.171-1.147-0.717-1.789-1.222
				c-0.505-0.399-2.687-2.822-2.98-3.016c-0.294-0.194-0.641-0.319-1.167-0.36c-0.15-0.044-1.857-0.049-3.326-1.205
				c-0.47-0.37-0.864-0.758-1.06-1.024H2.09C2.253,17.693,2.49,18.643,2.382,18.588"/>
			<path style="clip-path:url(#SVGID_00000110437980767027764440000010208429685636396727_);fill:#100C70;" d="M16.181,20.804
				c0.112-0.991,0.109-3.52-0.173-3.965l-0.066-0.098h-3.471C13.78,18.202,14.482,18.533,16.181,20.804"/>
			<path style="clip-path:url(#SVGID_00000110437980767027764440000010208429685636396727_);fill:#100C70;" d="M6.952,17.673
				c0.597,0.47,1.717,0.794,2.775,0.772c-0.345-0.405-0.793-1.047-1.226-1.705H5.767L6.952,17.673z"/>
			<path style="clip-path:url(#SVGID_00000110437980767027764440000010208429685636396727_);fill:#100C70;" d="M9.9,17.801
				c0.386,0.454,0.826,0.65,1.323,1.153l2.387,2.4c0.703,0.664,1.761,1.162,2.358,1.632l0.254,0.177
				c0.103-0.886,0.107-1.156-0.456-2.045c-0.896-1.411-2.737-2.899-2.964-3.225c-0.392-0.43-0.721-0.808-1.003-1.151H9.084
				C9.345,17.083,9.614,17.429,9.9,17.801"/>
			<path style="clip-path:url(#SVGID_00000110437980767027764440000010208429685636396727_);fill:#86031E;" d="M4.696,15.855
				c0.027-0.063,0.649,0.507,0.649,0.507l0.421,0.378h2.734c-0.779-1.184-1.512-2.421-1.512-2.421
				c-0.406-0.617-0.334-0.708-0.291-1.046l0.229,0.181c0.765,1.395,1.428,2.328,2.158,3.286h2.714
				c-0.578-0.704-0.953-1.266-1.246-1.847c-0.395-0.868-0.253-1.426-1.12-2.591c-0.42-0.553-0.531-0.79-0.679-1.167l0.09-0.114
				l0.151,0.044c0,0,0.543,0.538,0.645,0.692c1.494,2.069,1.057,2.765,2.527,4.629c0.105,0.125,0.207,0.242,0.307,0.353h3.471
				L12.8,11.756c-0.227-0.327-0.964-0.759-1.419-1.078c0,0-1.634-1.324-0.997-2.087c0.229,0.181,0.431,1.342,1.7,2.044
				c0,0-1.101-2.427-0.849-3.455c0.036-0.046,0.236-0.111,0.236-0.111c0.435,1.903,0.763,3.091,1.188,3.685l3.331,4.742l0.202,0.148
				c0.128-1.202-0.12-3.95-0.12-3.95c-0.613-0.593-1.854-2.166-2.171-3.085c-0.665-1.044-1.481-3.172-1.183-3.645
				c0.054-0.068,0.077-0.05,0.177-0.084c1.026,2.852,1.767,4.607,3.183,6.02c-0.221-1.513-0.563-2.878-0.844-3.843
				c-0.066-0.201-1.152-3.324-0.73-3.655c0,0,0.05-0.12,0.213-0.083c0.163,0.038,0.721,2.486,0.931,3.023
				c0.284,0.798,0.615,2.082,0.845,3.146V2.816c-0.079-0.085-0.155-0.17-0.227-0.254l-0.109,0.375
				c-0.121-0.419-1.102-1.604-1.102-1.604l-0.053,0.394c0,0-0.273-0.393-0.537-0.679c-0.21-0.228-0.425-0.373-0.411-0.314
				c0.035,0.143-0.256,1.257-0.256,1.257l-0.229-0.162c0,0-0.039,0.81-0.207,1.125l-0.507-0.322
				c-0.045,0.379-0.318,1.094-0.841,1.736l-0.128-0.306c-0.075,0.133-1.066,1.759-1.066,1.759l-0.583-0.772
				c-0.435,0.279-1.82,2.124-2.393,2.917C7.64,7.762,7.551,7.556,7.53,7.333c-0.449-0.018-1.539,1.87-1.826,2.633
				C5.526,9.789,5.594,9.658,5.496,9.261c-0.589,0.199-1.482,2.611-1.68,2.941c-0.242,0.404-0.366-0.439-0.366-0.439
				c-0.879,0.611-0.908,3.588-1.001,3.59c-0.192,0.003-0.368-0.419-0.368-0.419c-0.183,0.906-0.129,1.01,0.008,1.807h3.21
				C5.189,16.59,4.668,15.918,4.696,15.855"/>
			<path style="clip-path:url(#SVGID_00000110437980767027764440000010208429685636396727_);" d="M23.974,18.434
				c1.278,0.076,1.816,0.054,3.267-1.221l0.161,0.126c-0.645,1.054-1.667,1.55-2.698,1.631c0,0-0.989,0.077-1.113,0.092
				c-0.533,0.064-3.086,2.552-3.086,2.552c1.04,0.001,1.317-0.116,1.859-0.284c0.764-0.216,1.632-0.611,1.471-0.217
				c-0.478,0.182-1.307,0.904-2.839,0.962c-0.912,0.026-1.195,0.101-1.662,0.365c-0.74,0.421-1.597,1.084-1.941,1.521
				c-0.289,0.366-0.374,0.71-0.398,1.732c0.332-0.186,0.446-0.282,0.705-0.375c1.082-0.524,3.381-1.131,4.339-1.641
				c0.818-0.472,2.641-1.749,3.116-2.305c0,0,1.983-1.858,2.317-1.857c0.063,0.014,0.209,0.016,0.209,0.016
				c-0.492,0.766-0.941,1.007-1.358,1.347c-0.357,0.313-0.723,0.731-0.968,0.947c-1.273,1.192-2.234,1.847-3.628,2.721
				c0.769,0.344,2.598,0.334,2.795,0.416l0.084,0.176c-0.754,0.485-2.624-0.02-2.922-0.068c-0.946-0.262-0.977-0.175-2.024,0.116
				c-1.184,0.371-2.123,0.857-2.412,1.224c-0.108,0.137-0.091,0.445-0.276,0.632c-0.126,0.132-0.265,0.223-0.48,0.263v3.004
				c1.777,3.871,9.086,1.928,10.043,2.198c0.183,0.052,0.346,0.258,0.547,0.175c0.16-0.093,0.154-0.43,0.265-0.615
				c0.428-0.71-0.345-0.341-0.541-0.186c-0.983,0.235-3.579,0.532-6.215,0.29c-4.293-0.339-3.692-3.9-3.692-3.9
				s0.17-1.116,1.334-0.893c0.746,0.142,3.027,0.784,3.412,0.399c-0.265-0.163-0.434-0.49-0.434-0.49
				c0.784,0.128,2.815,0.21,3.271-0.246c-0.066,0.067-0.256-0.413-0.256-0.413c1.035,0,1.529-0.12,2.815-0.972l-0.488-0.133
				c1.44-0.772,2.234-1.385,2.225-1.666c-0.329-0.005-0.496-0.08-0.491-0.203c1.346-0.712,1.903-1.544,1.903-1.544
				s-0.632-0.068-0.511-0.384c0.567-0.257,1.3-2.642,1.29-3.226c-0.264,0.237-0.462,0.164-0.518,0.088c0,0,0.303-0.828,0.475-1.848
				h-5.954C24.717,17.389,24.385,17.965,23.974,18.434"/>
			<path style="clip-path:url(#SVGID_00000110437980767027764440000010208429685636396727_);" d="M17.399,17.012
				c-0.217,0.276-0.27,0.531-0.242,1.298l0.003,2.642l0.123-0.016c0.461-0.468,1.698-2.73,2.274-3.61
				c0.138-0.21,0.255-0.405,0.355-0.586H17.66C17.555,16.832,17.479,16.91,17.399,17.012"/>
			<path style="clip-path:url(#SVGID_00000110437980767027764440000010208429685636396727_);" d="M22.946,18.182
				c0,0-0.113-0.68-0.203-1.441H20.51c-0.104,0.279-0.261,0.569-0.47,0.853c-0.122,0.164-1.787,3.102-2.045,3.383
				c0,0-0.983,0.825-0.871,2.288c0.618-0.407,4.604-3.441,4.974-3.817C22.764,18.931,23.045,18.669,22.946,18.182"/>
			<path style="clip-path:url(#SVGID_00000110437980767027764440000010208429685636396727_);" d="M23.515,18.072
				c0.343-0.329,0.645-0.789,0.897-1.331h-1.174C23.306,17.175,23.399,17.629,23.515,18.072"/>
			<path style="clip-path:url(#SVGID_00000110437980767027764440000010208429685636396727_);fill:#0C7D30;" d="M30.989,14.738
				c-0.149,0.216-0.424,0.435-0.627,0.292c-0.183-1.329-0.768-3.12-0.768-3.12l-0.406,0.214c-0.494-0.797-0.947-1.516-1.562-2.36
				l-0.349,0.481c0,0-1.902-2.423-2.024-2.472l-0.344,0.581c-0.731-1.181-1.825-2.183-1.825-2.183
				c-0.055,0.188-0.274,0.593-0.274,0.593s-1.332-1.433-2.161-2.171l-0.394,0.457c-0.883-0.96-1.734-1.324-2.08-1.505L18.11,4.035
				c-0.735-0.376-1.222-0.797-1.616-1.219v6.672c0.127,0.587,0.223,1.108,0.264,1.443c0.481-0.327,0.689-0.497,0.991-0.929
				c0.465-0.638,1.37-1.598,1.065-3.101c0,0,0.123-0.015,0.091-0.115l0.138,0.108c0.126,0.359,0.573,0.972-0.341,2.558
				c-0.486,0.806-1.322,1.821-1.503,2.051c-0.234,0.299-0.342,0.623-0.165,1.58c0.058,0.492,0.103,3.316,0.103,3.316
				c1.244-0.917,2.561-2.073,3.113-2.679c0.959-1.03,1.286-1.776,1.355-3.47l0.008-1.332c0.101-0.033,0.126-0.161,0.126-0.161
				c0.404,0.43,0.36,1.101,0.333,1.23c0.028,0.058,0.315,1.772-0.845,3.387l-2.984,2.893c-0.282,0.229-0.456,0.362-0.585,0.474
				h2.252c0.156-0.28,0.262-0.517,0.273-0.662c-0.008-0.192,0.041-0.431,0.161-0.55c0,0,0.17-0.133,0.218,0
				c0.139,0.309,0.119,0.744-0.054,1.212h2.233c-0.087-0.741-0.152-1.557-0.07-1.896c0.287-1.262,0.901-3.269,1.371-3.159
				c0.003,0.894-0.791,2.09-0.893,2.977c-0.085,0.45-0.048,1.225,0.086,2.078h1.174c0.528-1.137,0.833-2.638,0.831-4.073
				c0,0-0.102-0.862,0.101-1.074l0.16,0.126c0.084,0.178,0.182,0.479,0.143,1.191c-0.006,1.382-0.228,2.715-0.672,3.831h5.954
				C31.038,16.096,31.095,15.375,30.989,14.738"/>
		</g>
	</g>
	<g>
	</g>
	<g>
	</g>
	<g>
	</g>
	<g>
	</g>
	<g>
	</g>
	<g>
	</g>
	<g>
	</g>
	<g>
	</g>
	<g>
	</g>
	<g>
	</g>
	<g>
	</g>
	<g>
	</g>
	<g>
	</g>
	<g>
	</g>
	<g>
	</g>
</g>
</svg>
