<?xml version="1.0" encoding="utf-8"?>
<!-- Generator: Adobe Illustrator 26.3.1, SVG Export Plug-In . SVG Version: 6.00 Build 0)  -->
<svg version="1.1" xmlns="http://www.w3.org/2000/svg" xmlns:xlink="http://www.w3.org/1999/xlink" x="0px" y="0px"
	 viewBox="0 0 87.014 31.547" style="enable-background:new 0 0 87.014 31.547;" xml:space="preserve">
<style type="text/css">
	.st0{fill:#1B322E;}
	.st1{fill:#FFFFFF;}
</style>
<g id="Layer_1">
	<g>
		<path class="st0" d="M1.426,22.216V6.68c0-3.338,1.6-4.938,4.938-4.938h10.018c3.34,0,4.938,1.6,4.938,4.938v3.862h-6.752V7.986
			c0-0.508-0.144-0.654-0.654-0.654h-5.01c-0.508,0-0.654,0.144-0.654,0.654v12.922c0,0.508,0.144,0.654,0.654,0.654h5.01
			c0.508,0,0.654-0.144,0.654-0.654v-3.2H11.67v-5.366h9.65v9.876c0,3.338-1.6,4.936-4.938,4.936H6.364
			C3.026,27.152,1.426,25.554,1.426,22.216"/>
		<polygon class="st0" points="29.682,7.55 23.328,7.55 23.328,1.742 42.858,1.742 42.858,7.55 36.504,7.55 36.504,27.152 
			29.682,27.152 		"/>
		<path class="st0" d="M66.548,22.216V6.68c0-3.338,1.678-4.938,5.01-4.938h9.692c3.34,0,4.864,1.6,4.864,4.938v4.754H79.29V8.058
			c0-0.508-0.146-0.654-0.652-0.654h-4.612c-0.508,0-0.654,0.144-0.654,0.654v12.778c0,0.508,0.144,0.654,0.654,0.654h4.612
			c0.506,0,0.652-0.144,0.652-0.654v-3.828h6.824v5.2c0,3.338-1.6,4.936-4.936,4.936h-9.692c-3.34,0-4.938-1.6-4.938-4.936"/>
		<polygon class="st1" points="56.54,30.22 52.886,15.992 49.23,30.22 		"/>
		<polygon class="st0" points="65.082,27.152 57.35,1.742 48.348,1.742 40.688,27.152 47.658,27.152 52.74,7.296 57.822,27.152 		
			"/>
	</g>
</g>
<g id="Bottom">
</g>
<g id="Layer_2">
</g>
<g id="ICONS">
</g>
<g id="Header">
</g>
</svg>
