<?xml version="1.0" encoding="utf-8"?>
<!-- Generator: Adobe Illustrator 26.3.1, SVG Export Plug-In . SVG Version: 6.00 Build 0)  -->
<svg version="1.1" xmlns="http://www.w3.org/2000/svg" xmlns:xlink="http://www.w3.org/1999/xlink" x="0px" y="0px"
	 viewBox="0 0 45 45" style="enable-background:new 0 0 45 45;" xml:space="preserve">
<style type="text/css">
	.st0{fill:#FFFFFF;}
</style>
<g id="Guides">
</g>
<g id="ICONS">
	<g>
		<path class="st0" d="M32.776,29.199L24.025,14.05c-0.326-0.55-0.9-0.875-1.525-0.875c-0.625,0-1.201,0.326-1.525,0.875
			l-8.751,15.149C12.075,29.474,12,29.775,12,30.075c0,0.975,0.773,1.751,1.749,1.751h17.503c0.975,0,1.749-0.776,1.749-1.751
			C33,29.775,32.925,29.474,32.776,29.199z M23.744,18.316l-0.294,6.802h-1.866l-0.294-6.802H23.744z M23.413,28.942
			c-0.244,0.216-0.548,0.325-0.913,0.325s-0.669-0.109-0.913-0.325s-0.366-0.493-0.366-0.831c0-0.337,0.122-0.614,0.366-0.831
			c0.244-0.216,0.548-0.325,0.913-0.325s0.669,0.109,0.913,0.325c0.244,0.217,0.366,0.493,0.366,0.831
			C23.778,28.449,23.656,28.726,23.413,28.942z"/>
	</g>
</g>
</svg>
