<?xml version="1.0" encoding="utf-8"?>
<!-- Generator: Adobe Illustrator 26.3.1, SVG Export Plug-In . SVG Version: 6.00 Build 0)  -->
<svg version="1.1" xmlns="http://www.w3.org/2000/svg" xmlns:xlink="http://www.w3.org/1999/xlink" x="0px" y="0px"
	 viewBox="0 0 45 45" style="enable-background:new 0 0 45 45;" xml:space="preserve">
<style type="text/css">
	.st0{fill-rule:evenodd;clip-rule:evenodd;fill:#372E2C;}
	.st1{fill:#FFFFFF;}
</style>
<g id="Guides">
</g>
<g id="ICONS">
	<g>
		<g>
			<g>
				<g>
					<path class="st0" d="M24.025,14.05c-0.326-0.55-0.9-0.875-1.525-0.875s-1.201,0.326-1.525,0.875l-8.751,15.149
						C12.075,29.474,12,29.775,12,30.075c0,0.975,0.773,1.751,1.749,1.751h17.503c0.975,0,1.749-0.776,1.749-1.751
						c0-0.299-0.075-0.6-0.224-0.875L24.025,14.05L24.025,14.05z"/>
				</g>
			</g>
		</g>
		<path class="st1" d="M21.222,28.112c0-0.337,0.122-0.614,0.366-0.831c0.244-0.216,0.548-0.325,0.913-0.325
			s0.669,0.109,0.913,0.325c0.244,0.217,0.366,0.493,0.366,0.831c0,0.338-0.122,0.614-0.366,0.831s-0.548,0.325-0.913,0.325
			s-0.669-0.109-0.913-0.325S21.222,28.449,21.222,28.112z M23.45,25.118h-1.866l-0.294-6.802h2.454L23.45,25.118z"/>
	</g>
</g>
</svg>
