<?xml version="1.0" encoding="utf-8"?>
<!-- Generator: Adobe Illustrator 26.3.1, SVG Export Plug-In . SVG Version: 6.00 Build 0)  -->
<svg version="1.1" xmlns="http://www.w3.org/2000/svg" xmlns:xlink="http://www.w3.org/1999/xlink" x="0px" y="0px"
	 viewBox="0 0 88.416 30.56" style="enable-background:new 0 0 88.416 30.56;" xml:space="preserve">
<style type="text/css">
	.st0{fill:#edeae3;}
	.st1{fill:#ACA199;}
</style>
<g id="Guides">
</g>
<g id="ICONS">
</g>
<g id="Btm_Logos">
	<g>
		<path class="st0" d="M0.226,21.734V5.59c0-3.471,1.66-5.131,5.131-5.131h10.41c3.471,0,5.131,1.66,5.131,5.131v4.014h-7.016V6.947
			c0-0.528-0.151-0.679-0.679-0.679H7.996c-0.528,0-0.679,0.151-0.679,0.679v13.428c0,0.528,0.151,0.679,0.679,0.679h5.206
			c0.528,0,0.679-0.151,0.679-0.679v-3.319H10.87v-5.584h10.027v10.262c0,3.469-1.66,5.129-5.131,5.129H5.356
			C1.886,26.864,0.226,25.203,0.226,21.734"/>
		<polygon class="st0" points="29.586,6.494 22.985,6.494 22.985,0.459 43.278,0.459 43.278,6.494 36.677,6.494 36.677,26.863 
			29.586,26.863 		"/>
		<path class="st0" d="M67.895,21.734V5.59c0-3.471,1.735-5.131,5.206-5.131h10.071c3.471,0,5.054,1.66,5.054,5.131v4.94h-7.09
			V7.023c0-0.528-0.152-0.679-0.678-0.679h-4.792c-0.528,0-0.679,0.151-0.679,0.679V20.3c0,0.528,0.151,0.679,0.679,0.679h4.792
			c0.527,0,0.678-0.151,0.678-0.679v-3.978h7.09v5.412c0,3.469-1.659,5.129-5.129,5.129H73.026
			C69.555,26.864,67.895,25.203,67.895,21.734"/>
		<polygon class="st1" points="57.496,30.051 53.699,15.267 49.9,30.051 		"/>
		<polygon class="st0" points="66.372,26.863 58.337,0.459 48.983,0.459 41.024,26.863 48.266,26.863 53.548,6.23 58.829,26.863 		
			"/>
	</g>
</g>
<g id="Logos_ALL_Full_Color">
</g>
</svg>
