<?xml version="1.0" encoding="utf-8"?>
<!-- Generator: Adobe Illustrator 26.3.1, SVG Export Plug-In . SVG Version: 6.00 Build 0)  -->
<svg version="1.1" id="Layer_1" xmlns="http://www.w3.org/2000/svg" xmlns:xlink="http://www.w3.org/1999/xlink" x="0px" y="0px"
	 viewBox="0 0 79.697 9.542" style="enable-background:new 0 0 79.697 9.542;" xml:space="preserve">
<style type="text/css">
	.st0{fill:#d6d1ca;}
</style>
<g id="Layer_1_00000042702428687529585220000014882306843448158602_">
</g>
<g id="Layer_2_00000090256033096026219840000010834674390680914050_">
	<g>
		<g>
			<g>
				<g>
					<path class="st0" d="M3.677,3.902h2.946c0.011,0.073,0.023,0.151,0.034,0.232c0.011,0.082,0.017,0.168,0.017,0.258
						c0,0.36-0.056,0.718-0.169,1.072C6.392,5.819,6.201,6.134,5.931,6.41C5.655,6.696,5.332,6.919,4.96,7.076
						C4.589,7.234,4.164,7.313,3.685,7.313c-0.433,0-0.843-0.079-1.228-0.236C2.072,6.919,1.735,6.699,1.448,6.418
						c-0.287-0.281-0.514-0.615-0.68-1C0.602,5.032,0.519,4.611,0.519,4.155s0.083-0.877,0.249-1.262s0.393-0.719,0.68-1
						s0.623-0.501,1.009-0.659c0.385-0.157,0.795-0.236,1.228-0.236c0.461,0,0.888,0.082,1.279,0.245s0.719,0.391,0.984,0.684
						L5.281,2.593C5.084,2.374,4.852,2.205,4.585,2.087S4.015,1.91,3.677,1.91c-0.287,0-0.563,0.054-0.827,0.16
						C2.585,2.177,2.352,2.327,2.149,2.522C1.946,2.716,1.786,2.951,1.668,3.227C1.549,3.502,1.49,3.812,1.49,4.155
						s0.059,0.653,0.177,0.929C1.786,5.36,1.946,5.595,2.149,5.789C2.352,5.983,2.585,6.134,2.85,6.241
						c0.265,0.107,0.543,0.16,0.836,0.16c0.388,0,0.702-0.059,0.941-0.177C4.866,6.105,5.067,5.968,5.23,5.81
						c0.118-0.113,0.222-0.26,0.312-0.443c0.09-0.183,0.149-0.384,0.177-0.604H3.677V3.902z"/>
					<path class="st0" d="M9.79,2.906c0.315,0,0.605,0.055,0.87,0.165c0.265,0.11,0.492,0.263,0.684,0.46
						c0.191,0.197,0.341,0.431,0.447,0.701c0.107,0.27,0.16,0.563,0.16,0.878c0,0.315-0.054,0.608-0.16,0.878
						c-0.107,0.27-0.256,0.504-0.447,0.701s-0.419,0.35-0.684,0.46s-0.554,0.165-0.87,0.165c-0.315,0-0.605-0.055-0.87-0.165
						c-0.265-0.11-0.493-0.263-0.684-0.46C8.045,6.491,7.895,6.257,7.789,5.987c-0.107-0.27-0.16-0.563-0.16-0.878
						c0-0.315,0.053-0.608,0.16-0.878c0.107-0.27,0.256-0.504,0.447-0.701C8.427,3.334,8.655,3.18,8.92,3.07
						C9.184,2.961,9.474,2.906,9.79,2.906z M9.79,6.443c0.157,0,0.309-0.031,0.456-0.093c0.146-0.062,0.277-0.149,0.393-0.262
						c0.115-0.113,0.207-0.252,0.274-0.418c0.068-0.166,0.101-0.353,0.101-0.561c0-0.208-0.034-0.395-0.101-0.561
						c-0.067-0.166-0.159-0.305-0.274-0.418c-0.115-0.113-0.246-0.2-0.393-0.262C10.099,3.806,9.947,3.775,9.79,3.775
						c-0.158,0-0.31,0.031-0.456,0.093C9.187,3.93,9.056,4.017,8.941,4.13S8.734,4.382,8.667,4.548
						C8.599,4.714,8.565,4.901,8.565,5.109S8.599,5.504,8.666,5.67C8.734,5.836,8.825,5.975,8.94,6.088
						c0.115,0.113,0.246,0.2,0.393,0.262C9.48,6.412,9.632,6.443,9.79,6.443z"/>
					<path class="st0" d="M15.007,2.906c0.315,0,0.605,0.055,0.87,0.165s0.492,0.263,0.684,0.46
						c0.191,0.197,0.341,0.431,0.447,0.701c0.107,0.27,0.16,0.563,0.16,0.878c0,0.315-0.054,0.608-0.16,0.878
						c-0.107,0.27-0.256,0.504-0.447,0.701s-0.419,0.35-0.684,0.46c-0.265,0.11-0.554,0.165-0.87,0.165
						c-0.315,0-0.605-0.055-0.87-0.165c-0.265-0.11-0.493-0.263-0.684-0.46s-0.341-0.431-0.447-0.701
						c-0.107-0.27-0.16-0.563-0.16-0.878s0.053-0.608,0.16-0.878c0.107-0.27,0.256-0.504,0.447-0.701s0.419-0.35,0.684-0.46
						C14.402,2.961,14.692,2.906,15.007,2.906z M15.007,6.443c0.157,0,0.309-0.031,0.456-0.093c0.146-0.062,0.277-0.149,0.393-0.262
						c0.115-0.113,0.207-0.252,0.274-0.418c0.068-0.166,0.101-0.353,0.101-0.561c0-0.208-0.034-0.395-0.101-0.561
						s-0.159-0.305-0.274-0.418c-0.115-0.113-0.246-0.2-0.393-0.262c-0.146-0.062-0.298-0.093-0.456-0.093s-0.31,0.031-0.456,0.093
						s-0.277,0.149-0.393,0.262c-0.115,0.113-0.207,0.252-0.274,0.418c-0.067,0.166-0.101,0.353-0.101,0.561
						c0,0.208,0.034,0.395,0.101,0.561c0.068,0.166,0.159,0.305,0.274,0.418c0.115,0.113,0.246,0.2,0.393,0.262
						C14.697,6.412,14.849,6.443,15.007,6.443z"/>
					<path class="st0" d="M19.752,9.136c-0.287,0-0.542-0.038-0.764-0.114s-0.415-0.173-0.578-0.291
						c-0.163-0.118-0.297-0.251-0.401-0.397c-0.104-0.146-0.182-0.287-0.232-0.422l0.895-0.363c0.079,0.22,0.214,0.398,0.405,0.536
						c0.191,0.138,0.416,0.207,0.675,0.207c0.388,0,0.691-0.113,0.908-0.34C20.876,7.726,20.984,7.408,20.984,7V6.663h-0.051
						c-0.13,0.186-0.308,0.341-0.536,0.464C20.17,7.251,19.904,7.313,19.6,7.313c-0.253,0-0.498-0.054-0.734-0.162
						c-0.236-0.108-0.446-0.258-0.629-0.452C18.053,6.506,17.908,6.273,17.801,6s-0.16-0.571-0.16-0.895s0.053-0.621,0.16-0.891
						s0.252-0.501,0.435-0.695c0.183-0.193,0.393-0.344,0.629-0.452c0.236-0.108,0.481-0.162,0.734-0.162
						c0.304,0,0.57,0.062,0.798,0.186s0.407,0.279,0.536,0.464h0.051V3.041h0.903v3.901c0,0.355-0.055,0.668-0.165,0.941
						s-0.259,0.502-0.448,0.688s-0.414,0.326-0.675,0.422S20.056,9.136,19.752,9.136z M19.785,6.443
						c0.152,0,0.301-0.029,0.447-0.086C20.379,6.3,20.507,6.214,20.617,6.1c0.11-0.114,0.198-0.254,0.266-0.42
						s0.101-0.357,0.101-0.575c0-0.211-0.034-0.402-0.101-0.57s-0.156-0.309-0.266-0.42s-0.238-0.197-0.384-0.257
						s-0.295-0.09-0.447-0.09c-0.158,0-0.308,0.03-0.452,0.09c-0.143,0.06-0.272,0.147-0.384,0.262
						c-0.113,0.114-0.203,0.254-0.27,0.42c-0.067,0.166-0.101,0.355-0.101,0.566c0,0.212,0.034,0.4,0.101,0.566
						c0.068,0.166,0.158,0.306,0.27,0.42c0.112,0.114,0.241,0.202,0.384,0.262C19.477,6.413,19.628,6.443,19.785,6.443z"/>
					<path class="st0" d="M22.571,7.178V1.133h0.937v6.045H22.571z"/>
					<path class="st0" d="M28.528,5.541c-0.079,0.356-0.244,0.682-0.493,0.976c-0.25,0.294-0.599,0.505-1.048,0.634
						c-0.298,0.085-0.587,0.111-0.869,0.078s-0.542-0.118-0.78-0.255s-0.446-0.319-0.622-0.546s-0.309-0.496-0.397-0.804
						c-0.082-0.287-0.112-0.572-0.088-0.857s0.096-0.549,0.217-0.791c0.121-0.242,0.289-0.456,0.506-0.641
						c0.216-0.185,0.476-0.321,0.779-0.408c0.307-0.09,0.596-0.117,0.867-0.083c0.27,0.034,0.516,0.119,0.736,0.254
						c0.22,0.136,0.413,0.321,0.576,0.555c0.164,0.234,0.29,0.505,0.378,0.814c0.008,0.027,0.015,0.051,0.021,0.073
						c0.002,0.029,0.007,0.054,0.013,0.075c0.001,0.023,0.004,0.046,0.01,0.067L25.275,5.56c0.07,0.185,0.164,0.337,0.28,0.456
						c0.116,0.119,0.243,0.208,0.38,0.269c0.137,0.06,0.28,0.092,0.427,0.097c0.148,0.005,0.287-0.012,0.416-0.049
						c0.26-0.074,0.456-0.198,0.588-0.37s0.226-0.366,0.281-0.581L28.528,5.541z M27.252,4.246c-0.034-0.078-0.086-0.161-0.155-0.25
						c-0.069-0.088-0.158-0.162-0.266-0.222c-0.108-0.06-0.237-0.1-0.386-0.122c-0.15-0.021-0.319-0.005-0.508,0.049
						c-0.26,0.074-0.461,0.216-0.603,0.423c-0.142,0.208-0.209,0.451-0.199,0.729L27.252,4.246z"/>
				</g>
				<path class="st0" d="M3.677,3.902h2.946c0.011,0.073,0.023,0.151,0.034,0.232c0.011,0.082,0.017,0.168,0.017,0.258
					c0,0.36-0.056,0.718-0.169,1.072C6.392,5.819,6.201,6.134,5.931,6.41C5.655,6.696,5.332,6.919,4.96,7.076
					C4.589,7.234,4.164,7.313,3.685,7.313c-0.433,0-0.843-0.079-1.228-0.236C2.072,6.919,1.735,6.699,1.448,6.418
					c-0.287-0.281-0.514-0.615-0.68-1C0.602,5.032,0.519,4.611,0.519,4.155s0.083-0.877,0.249-1.262s0.393-0.719,0.68-1
					s0.623-0.501,1.009-0.659c0.385-0.157,0.795-0.236,1.228-0.236c0.461,0,0.888,0.082,1.279,0.245s0.719,0.391,0.984,0.684
					L5.281,2.593C5.084,2.374,4.852,2.205,4.585,2.087S4.015,1.91,3.677,1.91c-0.287,0-0.563,0.054-0.827,0.16
					C2.585,2.177,2.352,2.327,2.149,2.522C1.946,2.716,1.786,2.951,1.668,3.227C1.549,3.502,1.49,3.812,1.49,4.155
					s0.059,0.653,0.177,0.929C1.786,5.36,1.946,5.595,2.149,5.789C2.352,5.983,2.585,6.134,2.85,6.241
					c0.265,0.107,0.543,0.16,0.836,0.16c0.388,0,0.702-0.059,0.941-0.177C4.866,6.105,5.067,5.968,5.23,5.81
					c0.118-0.113,0.222-0.26,0.312-0.443c0.09-0.183,0.149-0.384,0.177-0.604H3.677V3.902z"/>
				<path class="st0" d="M9.79,2.906c0.315,0,0.605,0.055,0.87,0.165c0.265,0.11,0.492,0.263,0.684,0.46
					c0.191,0.197,0.341,0.431,0.447,0.701c0.107,0.27,0.16,0.563,0.16,0.878c0,0.315-0.054,0.608-0.16,0.878
					c-0.107,0.27-0.256,0.504-0.447,0.701s-0.419,0.35-0.684,0.46s-0.554,0.165-0.87,0.165c-0.315,0-0.605-0.055-0.87-0.165
					c-0.265-0.11-0.493-0.263-0.684-0.46C8.045,6.491,7.895,6.257,7.789,5.987c-0.107-0.27-0.16-0.563-0.16-0.878
					c0-0.315,0.053-0.608,0.16-0.878c0.107-0.27,0.256-0.504,0.447-0.701C8.427,3.334,8.655,3.18,8.92,3.07
					C9.184,2.961,9.474,2.906,9.79,2.906z M9.79,6.443c0.157,0,0.309-0.031,0.456-0.093c0.146-0.062,0.277-0.149,0.393-0.262
					c0.115-0.113,0.207-0.252,0.274-0.418c0.068-0.166,0.101-0.353,0.101-0.561c0-0.208-0.034-0.395-0.101-0.561
					c-0.067-0.166-0.159-0.305-0.274-0.418c-0.115-0.113-0.246-0.2-0.393-0.262C10.099,3.806,9.947,3.775,9.79,3.775
					c-0.158,0-0.31,0.031-0.456,0.093C9.187,3.93,9.056,4.017,8.941,4.13S8.734,4.382,8.667,4.548
					C8.599,4.714,8.565,4.901,8.565,5.109S8.599,5.504,8.666,5.67C8.734,5.836,8.825,5.975,8.94,6.088
					c0.115,0.113,0.246,0.2,0.393,0.262C9.48,6.412,9.632,6.443,9.79,6.443z"/>
				<path class="st0" d="M15.007,2.906c0.315,0,0.605,0.055,0.87,0.165s0.492,0.263,0.684,0.46c0.191,0.197,0.341,0.431,0.447,0.701
					c0.107,0.27,0.16,0.563,0.16,0.878c0,0.315-0.054,0.608-0.16,0.878c-0.107,0.27-0.256,0.504-0.447,0.701s-0.419,0.35-0.684,0.46
					c-0.265,0.11-0.554,0.165-0.87,0.165c-0.315,0-0.605-0.055-0.87-0.165c-0.265-0.11-0.493-0.263-0.684-0.46
					s-0.341-0.431-0.447-0.701c-0.107-0.27-0.16-0.563-0.16-0.878s0.053-0.608,0.16-0.878c0.107-0.27,0.256-0.504,0.447-0.701
					s0.419-0.35,0.684-0.46C14.402,2.961,14.692,2.906,15.007,2.906z M15.007,6.443c0.157,0,0.309-0.031,0.456-0.093
					c0.146-0.062,0.277-0.149,0.393-0.262c0.115-0.113,0.207-0.252,0.274-0.418c0.068-0.166,0.101-0.353,0.101-0.561
					c0-0.208-0.034-0.395-0.101-0.561s-0.159-0.305-0.274-0.418c-0.115-0.113-0.246-0.2-0.393-0.262
					c-0.146-0.062-0.298-0.093-0.456-0.093s-0.31,0.031-0.456,0.093s-0.277,0.149-0.393,0.262c-0.115,0.113-0.207,0.252-0.274,0.418
					c-0.067,0.166-0.101,0.353-0.101,0.561c0,0.208,0.034,0.395,0.101,0.561c0.068,0.166,0.159,0.305,0.274,0.418
					c0.115,0.113,0.246,0.2,0.393,0.262C14.697,6.412,14.849,6.443,15.007,6.443z"/>
				<path class="st0" d="M19.752,9.136c-0.287,0-0.542-0.038-0.764-0.114s-0.415-0.173-0.578-0.291
					c-0.163-0.118-0.297-0.251-0.401-0.397c-0.104-0.146-0.182-0.287-0.232-0.422l0.895-0.363c0.079,0.22,0.214,0.398,0.405,0.536
					c0.191,0.138,0.416,0.207,0.675,0.207c0.388,0,0.691-0.113,0.908-0.34C20.876,7.726,20.984,7.408,20.984,7V6.663h-0.051
					c-0.13,0.186-0.308,0.341-0.536,0.464C20.17,7.251,19.904,7.313,19.6,7.313c-0.253,0-0.498-0.054-0.734-0.162
					c-0.236-0.108-0.446-0.258-0.629-0.452C18.053,6.506,17.908,6.273,17.801,6s-0.16-0.571-0.16-0.895s0.053-0.621,0.16-0.891
					s0.252-0.501,0.435-0.695c0.183-0.193,0.393-0.344,0.629-0.452c0.236-0.108,0.481-0.162,0.734-0.162
					c0.304,0,0.57,0.062,0.798,0.186s0.407,0.279,0.536,0.464h0.051V3.041h0.903v3.901c0,0.355-0.055,0.668-0.165,0.941
					s-0.259,0.502-0.448,0.688s-0.414,0.326-0.675,0.422S20.056,9.136,19.752,9.136z M19.785,6.443c0.152,0,0.301-0.029,0.447-0.086
					C20.379,6.3,20.507,6.214,20.617,6.1c0.11-0.114,0.198-0.254,0.266-0.42s0.101-0.357,0.101-0.575
					c0-0.211-0.034-0.402-0.101-0.57s-0.156-0.309-0.266-0.42s-0.238-0.197-0.384-0.257s-0.295-0.09-0.447-0.09
					c-0.158,0-0.308,0.03-0.452,0.09c-0.143,0.06-0.272,0.147-0.384,0.262c-0.113,0.114-0.203,0.254-0.27,0.42
					c-0.067,0.166-0.101,0.355-0.101,0.566c0,0.212,0.034,0.4,0.101,0.566c0.068,0.166,0.158,0.306,0.27,0.42
					c0.112,0.114,0.241,0.202,0.384,0.262C19.477,6.413,19.628,6.443,19.785,6.443z"/>
				<path class="st0" d="M22.571,7.178V1.133h0.937v6.045H22.571z"/>
				<path class="st0" d="M28.528,5.541c-0.079,0.356-0.244,0.682-0.493,0.976c-0.25,0.294-0.599,0.505-1.048,0.634
					c-0.298,0.085-0.587,0.111-0.869,0.078s-0.542-0.118-0.78-0.255s-0.446-0.319-0.622-0.546s-0.309-0.496-0.397-0.804
					c-0.082-0.287-0.112-0.572-0.088-0.857s0.096-0.549,0.217-0.791c0.121-0.242,0.289-0.456,0.506-0.641
					c0.216-0.185,0.476-0.321,0.779-0.408c0.307-0.09,0.596-0.117,0.867-0.083c0.27,0.034,0.516,0.119,0.736,0.254
					c0.22,0.136,0.413,0.321,0.576,0.555c0.164,0.234,0.29,0.505,0.378,0.814c0.008,0.027,0.015,0.051,0.021,0.073
					c0.002,0.029,0.007,0.054,0.013,0.075c0.001,0.023,0.004,0.046,0.01,0.067L25.275,5.56c0.07,0.185,0.164,0.337,0.28,0.456
					c0.116,0.119,0.243,0.208,0.38,0.269c0.137,0.06,0.28,0.092,0.427,0.097c0.148,0.005,0.287-0.012,0.416-0.049
					c0.26-0.074,0.456-0.198,0.588-0.37s0.226-0.366,0.281-0.581L28.528,5.541z M27.252,4.246c-0.034-0.078-0.086-0.161-0.155-0.25
					c-0.069-0.088-0.158-0.162-0.266-0.222c-0.108-0.06-0.237-0.1-0.386-0.122c-0.15-0.021-0.319-0.005-0.508,0.049
					c-0.26,0.074-0.461,0.216-0.603,0.423c-0.142,0.208-0.209,0.451-0.199,0.729L27.252,4.246z"/>
			</g>
			<g>
				<path class="st0" d="M35.096,1.334v0.718h-2.661v1.853h2.399v0.702h-2.399V6.46h2.661v0.718h-3.411V1.334H35.096z"/>
				<path class="st0" d="M37.781,3.048c0.555,0,0.993,0.148,1.314,0.445s0.481,0.703,0.481,1.22v2.465h-0.718V6.623h-0.033
					c-0.31,0.457-0.724,0.686-1.241,0.686c-0.441,0-0.809-0.131-1.106-0.392c-0.297-0.261-0.445-0.588-0.445-0.979
					c0-0.413,0.156-0.743,0.469-0.987c0.313-0.245,0.73-0.367,1.253-0.367c0.446,0,0.813,0.082,1.102,0.245V4.656
					c0-0.261-0.103-0.483-0.31-0.665c-0.207-0.182-0.449-0.273-0.726-0.273c-0.419,0-0.751,0.177-0.996,0.53l-0.661-0.416
					C36.529,3.309,37.068,3.048,37.781,3.048z M36.809,5.953c0,0.196,0.083,0.359,0.249,0.49c0.166,0.131,0.36,0.196,0.583,0.196
					c0.315,0,0.597-0.117,0.845-0.351c0.248-0.234,0.371-0.509,0.371-0.824c-0.234-0.185-0.561-0.278-0.979-0.278
					c-0.305,0-0.559,0.074-0.763,0.22C36.912,5.554,36.809,5.736,36.809,5.953z"/>
				<path class="st0" d="M40.833,3.179h0.718v0.653h0.033c0.223-0.511,0.683-0.767,1.379-0.767l0.155,0.016v0.784l-0.335-0.033
					c-0.348,0-0.635,0.108-0.861,0.322c-0.226,0.215-0.339,0.489-0.339,0.82v2.204h-0.751L40.833,3.179L40.833,3.179z M45.517,7.243
					c-0.326,0-0.597-0.101-0.812-0.302S44.38,6.46,44.375,6.1V3.864h-0.702V3.179h0.702V1.955h0.751v1.224h0.979v0.686h-0.979v1.991
					c0,0.267,0.052,0.448,0.155,0.543c0.103,0.095,0.22,0.143,0.351,0.143c0.06,0,0.118-0.007,0.175-0.02s0.11-0.031,0.159-0.053
					l0.237,0.669C46.007,7.207,45.779,7.243,45.517,7.243z"/>
				<path class="st0" d="M47.272,1.334h0.751v1.844L47.99,3.734h0.033c0.114-0.196,0.29-0.359,0.526-0.49
					c0.237-0.131,0.483-0.196,0.739-0.196c0.49,0,0.866,0.14,1.13,0.42s0.396,0.679,0.396,1.196v2.514h-0.751V4.811
					c0-0.718-0.318-1.077-0.955-1.077c-0.305,0-0.562,0.126-0.771,0.379c-0.21,0.253-0.314,0.548-0.314,0.885v2.179h-0.751
					C47.272,7.177,47.272,1.334,47.272,1.334z"/>
				<path class="st0" d="M57.033,1.334v0.718h-2.661v1.853h2.399v0.702h-2.399V6.46h2.661v0.718h-3.411V1.334H57.033z"/>
				<path class="st0" d="M58.24,3.179h0.718v0.555h0.033c0.114-0.196,0.29-0.359,0.526-0.49C59.754,3.113,60,3.048,60.256,3.048
					c0.49,0,0.866,0.14,1.13,0.42s0.396,0.679,0.396,1.196v2.514h-0.751V4.713c-0.016-0.653-0.346-0.979-0.987-0.979
					c-0.299,0-0.55,0.121-0.751,0.363s-0.302,0.532-0.302,0.869v2.212H58.24V3.179z"/>
				<path class="st0" d="M64.802,9.071c-0.223,0-0.433-0.029-0.628-0.086c-0.196-0.057-0.374-0.137-0.535-0.241
					c-0.161-0.103-0.298-0.226-0.412-0.367c-0.114-0.142-0.201-0.299-0.261-0.473l0.71-0.294c0.082,0.234,0.223,0.422,0.424,0.563
					c0.201,0.141,0.435,0.212,0.702,0.212c0.408,0,0.726-0.122,0.955-0.367C65.985,7.773,66.1,7.436,66.1,7.006V6.623h-0.033
					c-0.142,0.212-0.333,0.38-0.575,0.502c-0.242,0.122-0.505,0.184-0.788,0.184c-0.522,0-0.971-0.204-1.347-0.612
					c-0.37-0.419-0.555-0.925-0.555-1.518s0.185-1.096,0.555-1.51c0.375-0.413,0.824-0.62,1.347-0.62
					c0.283,0,0.545,0.061,0.788,0.184c0.242,0.122,0.434,0.29,0.575,0.502H66.1V3.179h0.718v3.828c0,0.642-0.182,1.145-0.547,1.51
					C65.901,8.886,65.411,9.071,64.802,9.071z M64.826,6.623c0.37,0,0.672-0.133,0.906-0.4C65.977,5.956,66.1,5.608,66.1,5.178
					c0-0.419-0.122-0.764-0.367-1.036c-0.24-0.272-0.542-0.408-0.906-0.408c-0.359,0-0.661,0.136-0.906,0.408
					c-0.245,0.272-0.367,0.618-0.367,1.036c0,0.424,0.122,0.77,0.367,1.036C64.165,6.487,64.467,6.623,64.826,6.623z"/>
				<path class="st0" d="M68.956,3.179v3.999h-0.751V3.179H68.956z"/>
				<path class="st0" d="M70.343,3.179h0.718v0.555h0.033c0.114-0.196,0.29-0.359,0.526-0.49c0.237-0.131,0.483-0.196,0.739-0.196
					c0.49,0,0.866,0.14,1.13,0.42s0.396,0.679,0.396,1.196v2.514h-0.751V4.713c-0.016-0.653-0.346-0.979-0.987-0.979
					c-0.299,0-0.55,0.121-0.751,0.363s-0.302,0.532-0.302,0.869v2.212h-0.751V3.179z"/>
				<path class="st0" d="M76.97,7.308c-0.588,0-1.072-0.201-1.453-0.604c-0.381-0.402-0.571-0.911-0.571-1.526
					c0-0.609,0.185-1.117,0.555-1.522s0.843-0.608,1.42-0.608c0.593,0,1.065,0.192,1.416,0.575c0.351,0.384,0.526,0.921,0.526,1.612
					l-0.008,0.082h-3.142c0.011,0.392,0.141,0.707,0.392,0.947c0.25,0.24,0.549,0.359,0.898,0.359c0.479,0,0.854-0.239,1.126-0.718
					l0.669,0.326c-0.18,0.337-0.428,0.601-0.747,0.792C77.733,7.213,77.373,7.308,76.97,7.308z M75.77,4.697h2.293
					c-0.022-0.277-0.135-0.507-0.339-0.69c-0.204-0.182-0.477-0.273-0.82-0.273c-0.283,0-0.526,0.087-0.73,0.261
					C75.97,4.169,75.836,4.403,75.77,4.697z"/>
				<path class="st0" d="M35.096,1.334v0.718h-2.661v1.853h2.399v0.702h-2.399V6.46h2.661v0.718h-3.411V1.334H35.096z"/>
				<path class="st0" d="M37.781,3.048c0.555,0,0.993,0.148,1.314,0.445s0.481,0.703,0.481,1.22v2.465h-0.718V6.623h-0.033
					c-0.31,0.457-0.724,0.686-1.241,0.686c-0.441,0-0.809-0.131-1.106-0.392c-0.297-0.261-0.445-0.588-0.445-0.979
					c0-0.413,0.156-0.743,0.469-0.987c0.313-0.245,0.73-0.367,1.253-0.367c0.446,0,0.813,0.082,1.102,0.245V4.656
					c0-0.261-0.103-0.483-0.31-0.665c-0.207-0.182-0.449-0.273-0.726-0.273c-0.419,0-0.751,0.177-0.996,0.53l-0.661-0.416
					C36.529,3.309,37.068,3.048,37.781,3.048z M36.809,5.953c0,0.196,0.083,0.359,0.249,0.49c0.166,0.131,0.36,0.196,0.583,0.196
					c0.315,0,0.597-0.117,0.845-0.351c0.248-0.234,0.371-0.509,0.371-0.824c-0.234-0.185-0.561-0.278-0.979-0.278
					c-0.305,0-0.559,0.074-0.763,0.22C36.912,5.554,36.809,5.736,36.809,5.953z"/>
				<path class="st0" d="M40.833,3.179h0.718v0.653h0.033c0.223-0.511,0.683-0.767,1.379-0.767l0.155,0.016v0.784l-0.335-0.033
					c-0.348,0-0.635,0.108-0.861,0.322c-0.226,0.215-0.339,0.489-0.339,0.82v2.204h-0.751L40.833,3.179L40.833,3.179z M45.517,7.243
					c-0.326,0-0.597-0.101-0.812-0.302S44.38,6.46,44.375,6.1V3.864h-0.702V3.179h0.702V1.955h0.751v1.224h0.979v0.686h-0.979v1.991
					c0,0.267,0.052,0.448,0.155,0.543c0.103,0.095,0.22,0.143,0.351,0.143c0.06,0,0.118-0.007,0.175-0.02s0.11-0.031,0.159-0.053
					l0.237,0.669C46.007,7.207,45.779,7.243,45.517,7.243z"/>
				<path class="st0" d="M47.272,1.334h0.751v1.844L47.99,3.734h0.033c0.114-0.196,0.29-0.359,0.526-0.49
					c0.237-0.131,0.483-0.196,0.739-0.196c0.49,0,0.866,0.14,1.13,0.42s0.396,0.679,0.396,1.196v2.514h-0.751V4.811
					c0-0.718-0.318-1.077-0.955-1.077c-0.305,0-0.562,0.126-0.771,0.379c-0.21,0.253-0.314,0.548-0.314,0.885v2.179h-0.751
					C47.272,7.177,47.272,1.334,47.272,1.334z"/>
				<path class="st0" d="M57.033,1.334v0.718h-2.661v1.853h2.399v0.702h-2.399V6.46h2.661v0.718h-3.411V1.334H57.033z"/>
				<path class="st0" d="M58.24,3.179h0.718v0.555h0.033c0.114-0.196,0.29-0.359,0.526-0.49C59.754,3.113,60,3.048,60.256,3.048
					c0.49,0,0.866,0.14,1.13,0.42s0.396,0.679,0.396,1.196v2.514h-0.751V4.713c-0.016-0.653-0.346-0.979-0.987-0.979
					c-0.299,0-0.55,0.121-0.751,0.363s-0.302,0.532-0.302,0.869v2.212H58.24V3.179z"/>
				<path class="st0" d="M64.802,9.071c-0.223,0-0.433-0.029-0.628-0.086c-0.196-0.057-0.374-0.137-0.535-0.241
					c-0.161-0.103-0.298-0.226-0.412-0.367c-0.114-0.142-0.201-0.299-0.261-0.473l0.71-0.294c0.082,0.234,0.223,0.422,0.424,0.563
					c0.201,0.141,0.435,0.212,0.702,0.212c0.408,0,0.726-0.122,0.955-0.367C65.985,7.773,66.1,7.436,66.1,7.006V6.623h-0.033
					c-0.142,0.212-0.333,0.38-0.575,0.502c-0.242,0.122-0.505,0.184-0.788,0.184c-0.522,0-0.971-0.204-1.347-0.612
					c-0.37-0.419-0.555-0.925-0.555-1.518s0.185-1.096,0.555-1.51c0.375-0.413,0.824-0.62,1.347-0.62
					c0.283,0,0.545,0.061,0.788,0.184c0.242,0.122,0.434,0.29,0.575,0.502H66.1V3.179h0.718v3.828c0,0.642-0.182,1.145-0.547,1.51
					C65.901,8.886,65.411,9.071,64.802,9.071z M64.826,6.623c0.37,0,0.672-0.133,0.906-0.4C65.977,5.956,66.1,5.608,66.1,5.178
					c0-0.419-0.122-0.764-0.367-1.036c-0.24-0.272-0.542-0.408-0.906-0.408c-0.359,0-0.661,0.136-0.906,0.408
					c-0.245,0.272-0.367,0.618-0.367,1.036c0,0.424,0.122,0.77,0.367,1.036C64.165,6.487,64.467,6.623,64.826,6.623z"/>
				<rect x="68.205" y="3.179" class="st0" width="0.751" height="3.999"/>
				<path class="st0" d="M70.343,3.179h0.718v0.555h0.033c0.114-0.196,0.29-0.359,0.526-0.49c0.237-0.131,0.483-0.196,0.739-0.196
					c0.49,0,0.866,0.14,1.13,0.42s0.396,0.679,0.396,1.196v2.514h-0.751V4.713c-0.016-0.653-0.346-0.979-0.987-0.979
					c-0.299,0-0.55,0.121-0.751,0.363s-0.302,0.532-0.302,0.869v2.212h-0.751V3.179z"/>
				<path class="st0" d="M76.97,7.308c-0.588,0-1.072-0.201-1.453-0.604c-0.381-0.402-0.571-0.911-0.571-1.526
					c0-0.609,0.185-1.117,0.555-1.522s0.843-0.608,1.42-0.608c0.593,0,1.065,0.192,1.416,0.575c0.351,0.384,0.526,0.921,0.526,1.612
					l-0.008,0.082h-3.142c0.011,0.392,0.141,0.707,0.392,0.947c0.25,0.24,0.549,0.359,0.898,0.359c0.479,0,0.854-0.239,1.126-0.718
					l0.669,0.326c-0.18,0.337-0.428,0.601-0.747,0.792C77.733,7.213,77.373,7.308,76.97,7.308z M75.77,4.697h2.293
					c-0.022-0.277-0.135-0.507-0.339-0.69c-0.204-0.182-0.477-0.273-0.82-0.273c-0.283,0-0.526,0.087-0.73,0.261
					C75.97,4.169,75.836,4.403,75.77,4.697z"/>
				<path class="st0" d="M69.11,1.802c0,0.147-0.052,0.272-0.155,0.375s-0.228,0.155-0.375,0.155s-0.272-0.052-0.375-0.155
					S68.05,1.949,68.05,1.802s0.052-0.272,0.155-0.375c0.103-0.103,0.228-0.155,0.375-0.155s0.272,0.052,0.375,0.155
					S69.11,1.655,69.11,1.802z"/>
			</g>
		</g>
	</g>
</g>
<g id="ICONS">
</g>
</svg>
