<?xml version="1.0" encoding="utf-8"?>
<!-- Generator: Adobe Illustrator 26.3.1, SVG Export Plug-In . SVG Version: 6.00 Build 0)  -->
<svg version="1.1" xmlns="http://www.w3.org/2000/svg" xmlns:xlink="http://www.w3.org/1999/xlink" x="0px" y="0px"
	 viewBox="0 0 45 45" style="enable-background:new 0 0 45 45;" xml:space="preserve">
<style type="text/css">
	.st0{fill-rule:evenodd;clip-rule:evenodd;fill:#998675;}
</style>
<g id="Guides">
</g>
<g id="ICONS">
</g>
<g id="Menu_Sidebar">
</g>
<g id="Top_Menu_TBD">
	<g>
		<g transform="translate(5.000000, 5.000000)">
			<path class="st0" d="M17.257,23.826c-3.694,0-6.682-2.988-6.682-6.682s2.988-6.682,6.682-6.682s6.682,2.988,6.682,6.682
				S20.951,23.826,17.257,23.826L17.257,23.826z M25.791,16.19c-0.439-3.98-3.599-7.14-7.579-7.579V6.645h-1.909v1.966
				c-3.98,0.439-7.14,3.599-7.579,7.579H6.757v1.909h1.966c0.439,3.98,3.599,7.14,7.579,7.579v1.966h1.909v-1.966
				c3.98-0.439,7.14-3.599,7.579-7.579h1.966V16.19H25.791z M17.257,13.326c-2.11,0-3.818,1.709-3.818,3.818
				s1.709,3.818,3.818,3.818s3.818-1.709,3.818-3.818S19.367,13.326,17.257,13.326L17.257,13.326z"/>
		</g>
	</g>
</g>
</svg>
