<?xml version="1.0" encoding="utf-8"?>
<!-- Generator: Adobe Illustrator 26.3.1, SVG Export Plug-In . SVG Version: 6.00 Build 0)  -->
<svg version="1.1" xmlns="http://www.w3.org/2000/svg" xmlns:xlink="http://www.w3.org/1999/xlink" x="0px" y="0px"
	 viewBox="0 0 45 45" style="enable-background:new 0 0 45 45;" xml:space="preserve">
<style type="text/css">
	.st0{fill-rule:evenodd;clip-rule:evenodd;fill:#FFFFFF;}
</style>
<g id="Guides">
</g>
<g id="ICONS">
	<g>
		<g transform="translate(5.000000, 5.000000)">
			<path class="st0" d="M17.5,23.5c-3.317,0-6-2.683-6-6s2.683-6,6-6s6,2.683,6,6S20.817,23.5,17.5,23.5L17.5,23.5z M26.034,16.545
				c-0.439-3.98-3.599-7.14-7.579-7.579V7h-1.909v1.966c-3.98,0.439-7.14,3.599-7.579,7.579H7v1.909h1.966
				c0.439,3.98,3.599,7.14,7.579,7.579V28h1.909v-1.966c3.98-0.439,7.14-3.599,7.579-7.579H28v-1.909H26.034z"/>
		</g>
	</g>
</g>
</svg>
