<?xml version="1.0" encoding="utf-8"?>
<!-- Generator: Adobe Illustrator 26.3.1, SVG Export Plug-In . SVG Version: 6.00 Build 0)  -->
<svg version="1.1" xmlns="http://www.w3.org/2000/svg" xmlns:xlink="http://www.w3.org/1999/xlink" x="0px" y="0px"
	 viewBox="0 0 45 45" style="enable-background:new 0 0 45 45;" xml:space="preserve">
<style type="text/css">
	.st0{fill:#FFFFFF;}
</style>
<g id="Guides">
</g>
<g id="ICONS">
	<g>
		<path class="st0" d="M14.565,21.001c-0.015,0.206-0.02,0.412-0.02,0.621c0,4.55,3.632,8.254,8.156,8.363v2.137l5.203-4.028
			L22.7,24.067v1.977c-4.008,0.87-7.23-2.668-7.23-5.043C15.47,20.955,14.565,21.001,14.565,21.001z"/>
		<path class="st0" d="M30.435,23.997c0.015-0.206,0.02-0.412,0.02-0.621c0-4.55-3.632-8.254-8.156-8.363v-2.137l-5.203,4.028
			l5.203,4.028v-1.977c4.008-0.87,7.23,2.668,7.23,5.043C29.53,24.042,30.435,23.997,30.435,23.997z"/>
	</g>
</g>
</svg>
