<?xml version="1.0" encoding="utf-8"?>
<!-- Generator: Adobe Illustrator 26.3.1, SVG Export Plug-In . SVG Version: 6.00 Build 0)  -->
<svg version="1.1" xmlns="http://www.w3.org/2000/svg" xmlns:xlink="http://www.w3.org/1999/xlink" x="0px" y="0px"
	 viewBox="0 0 45 45" style="enable-background:new 0 0 45 45;" xml:space="preserve">
<style type="text/css">
	.st0{fill:#998675;}
</style>
<g id="Guides">
</g>
<g id="ICONS">
	<g>
		<path class="st0" d="M20.494,25.94c0-1.236,0.14-2.211,0.419-2.926s0.732-1.335,1.358-1.86s1.103-1.005,1.428-1.441
			c0.326-0.436,0.489-0.916,0.489-1.441c0-1.278-0.55-1.917-1.65-1.917c-0.508,0-0.918,0.186-1.231,0.559s-0.479,0.876-0.495,1.511
			h-4.291c0.017-1.693,0.55-3.011,1.6-3.955s2.522-1.416,4.418-1.416c1.888,0,3.35,0.436,4.386,1.308
			c1.037,0.872,1.556,2.112,1.556,3.72c0,0.703-0.14,1.341-0.419,1.917s-0.728,1.164-1.346,1.765l-1.46,1.358
			c-0.415,0.398-0.702,0.806-0.863,1.225s-0.25,0.95-0.267,1.593H20.494z M19.974,29.8c0-0.626,0.227-1.141,0.679-1.542
			c0.453-0.402,1.019-0.603,1.695-0.603s1.242,0.201,1.695,0.603c0.452,0.402,0.679,0.916,0.679,1.542s-0.227,1.141-0.679,1.542
			c-0.453,0.402-1.019,0.603-1.695,0.603s-1.242-0.201-1.695-0.603C20.2,30.94,19.974,30.426,19.974,29.8z"/>
	</g>
</g>
<g id="Top_Menu_TBD">
</g>
</svg>
